<svg xmlns="http://www.w3.org/2000/svg" viewBox="0 0 640 512"><path d="M254.1 37.3c30.5-51.4 107.1-49.7 134.6 5.1L567.9 400.8l.4 .7 .3 .8 1.8 4.2 .3 .7 .3 .7c13.8 36.4-1.9 78.1-37.5 95.9c-35.6 17.8-78.4 5.4-99.2-27.5l-.8-1.4-2.2-4-.4-.7L320 248.5l-110.5 221c-19 37.9-65.1 53.3-103 34.3s-53.3-65.1-34.3-103L251.3 42.4l2.8-5.1zM360.1 56.8c-16.5-33-63.6-33-80.1 0L100.7 415.2l-1.8 4.2c-8.1 21.2 1.1 45.5 21.9 55.9s45.7 3.1 57.8-16l2.2-4L300 217.1c8.3-16.5 31.8-16.5 40.1 0L459.1 455.2l2.3 4c11.4 18 34.1 25.5 53.9 17.8l3.9-1.7c19.4-9.7 28.7-31.7 23.2-51.9l-1.3-4-1.8-4.2L360.1 56.8zm169.8 59.3c8.8-7.2 21.8-6.7 30 1.5s8.7 21.2 1.5 30l-1.5 1.7-223.9 224c-8.8 8.8-23 8.8-31.8 0L147.4 216.5l-1.5-1.7c-7.2-8.8-6.7-21.8 1.5-30s21.2-8.7 30-1.5l1.7 1.5L304.1 309.9c8.8 8.8 23 8.8 31.8 0L528.2 117.6l1.7-1.5z"/></svg>