<svg xmlns="http://www.w3.org/2000/svg" viewBox="0 0 640 512"><path d="M285.1 121.8c8.7-1.2 26.3-1 36 .3c33.1 4.5 59 22.4 72 49.7c4.1 8.6 7.4 20.4 7.4 26.4v3.2l-26.3-.2-26.2-.3-1.1-5.3c-3.1-15.8-15.9-28.8-32.3-33.2c-6.4-1.6-20.2-1.7-26.6 0c-16.3 4.3-30.6 17.5-37.4 34.7c-4 9.9-5.4 16.9-5.9 29c-.5 13.1 .8 21.9 4.7 33.4c3.3 9.7 7.1 15.8 14.6 23.6c10.6 11.1 21.8 16 36.9 16c9 0 14-1.1 20.4-4.2c9.7-4.7 17.5-13.3 23.1-25.5c2.7-6 6.3-16.7 6.3-19c0-.9-4.5-1.2-24.7-1.3l-24.7-.3-.5-21H407.2v107l-23.4-.2-23.5-.3-.5-59.9-2.1 7.2c-8.3 28.9-24.3 46.8-48.9 54.5c-7 2.2-8.6 2.4-22.8 2.4c-17.1 .1-24.1-1.2-35.9-6.3c-27.7-12.2-46.9-39.4-53.5-75.6c-2.2-12.2-2-39.3 .4-50.8c10-48 41.4-77.9 88.2-84.1zm-6.6-88.6c70.1-7.9 140.9 22.1 184.4 78.2c6.6 8.6 16.1 23.6 20.6 32.5c2.6 5.1 5.6 9.5 10.5 15c35.8 39.5 54 93.7 49.1 145.6c-4.1 43.2-21.6 82.5-51.2 114.3c-29.9 32.2-68.6 52.4-113.9 59.6c-13.2 2.1-41.6 2.1-54.8 0c-41.1-6.5-78.6-24.7-106.5-51.9c-4.9-4.8-9-7.8-14.5-10.8c-17.8-9.4-36.1-23.7-51.9-40.6c-19.8-21.2-34.8-46.5-44-74.1c-6.8-20.5-9.6-36.1-10.3-58.6C92.7 136.1 172 45.2 278.6 33.2zm2.4 2.1c-54.6 5.9-103.9 32.4-137.9 74.4c-42.2 52.1-55.8 123.2-35.5 187.2c10 31.9 26.1 58.3 49.8 82.1c31 31.1 68.7 50.2 113 57.5c14.8 2.4 48.7 2.2 63.7-.5c42.4-7.4 79.8-26.6 109.5-56.2c17.2-16.9 29.5-34.5 40-56.5c9.5-20 14.5-36 17.9-58.2c2.2-13.3 2.2-43.2 .1-56.9c-6.6-42.9-25-80.7-54.1-110.9C430.7 80 415.2 68.3 394.9 57.7c-20.7-10.8-41.1-17.5-64.1-21.1c-10.3-1.6-39.7-2.4-49.8-1.3z"/></svg>