<svg xmlns="http://www.w3.org/2000/svg" viewBox="0 0 640 512"><path d="M306.8 374.6V137.4 58.4c0-7-2.8-13.7-7.7-18.6s-11.6-7.7-18.6-7.7H201.4c-28 0-54.8 11.1-74.5 30.9S96 109.5 96 137.4V453.6c0 7 2.8 13.7 7.7 18.6s11.6 7.7 18.6 7.7h79.1c28 0 54.8-11.1 74.5-30.9s30.9-46.6 30.9-74.5zM497.2 49.8C479.8 38.2 459.4 32 438.6 32H359.5c-14.5 0-26.4 11.9-26.4 26.4v79.1c0 20.8 6.2 41.2 17.8 58.6s28 30.8 47.3 38.8s40.5 10.1 60.9 6s39.2-14.1 54-28.8s24.8-33.5 28.8-54s2-41.6-6-60.9s-21.5-35.7-38.8-47.3z"/></svg>