<svg xmlns="http://www.w3.org/2000/svg" viewBox="0 0 640 512"><path d="M164.2 32.2c-13.2 2.4-24.5 12.3-30.1 26.4c-3.6 8.9-5 17.3-5 28.6c0 14.1 3.2 30.8 7.8 39.8c2.8 5.6 5.4 10.2 7.1 12.6c11.5 15.9 27 29.3 40.8 35.1c2.2 1 4.1 1.8 4.2 1.8c.1 .1-5 6.5-11.2 14.3c-11.7 14.6-29 37.3-33.7 44.3c-1.5 2.2-5.4 7.8-8.7 12.6c-3.3 4.8-7.6 10.9-9.4 13.7c-1.8 2.7-3.9 5.8-4.6 6.8c-1.8 2.4-11.8 20.5-16.8 30.3c-6.6 13.2-8.8 20.9-8.4 30.7c.3 7.7 2.6 13.3 6.6 16.4c2.2 1.6 5.9 3.2 8.8 3.7c1.7 .3 2.6 .7 2.5 .9c-1.4 3-2.2 5.4-2.5 7.2c-.2 1.2-.8 3.2-1.4 4.5c-.5 1.3-1.3 3.8-1.7 5.6s-1.4 5.1-2.2 7.5c-1.2 3.7-1.4 4.7-1.4 8.1c0 4.5 1.2 10 3.1 14c4.8 10.3 21.9 25 38.4 33.1c7.5 3.7 10.7 4.9 17.1 6.6c2.9 .8 5.5 1.6 5.8 1.8c.3 .2 1.8 2.9 3.4 6.1c4.4 8.5 8.8 13.5 17.8 20.4c7.6 5.8 13.6 8.9 23.2 11.9c8.8 2.8 11.5 3.1 26 2.8c13-.2 16-.6 27.5-3.6c4.5-1.2 8.5-2.5 12.2-4.1c11.2-4.9 15.6-7.4 22.4-13.1c2.1-1.7 4.2-3.4 4.6-3.6c.7-.5 14.2-1.7 26.3-2.3l4.2-.2 3.5 2.8c9.2 7.4 19.4 12.5 31.3 15.6c15.8 4.2 28.8 5.6 40 4.4c8.7-.9 22.5-5.6 30.6-10.4c9.4-5.6 19.3-15 23.8-22.9c1-1.7 1.9-3.1 2.1-3.2c.2-.1 2.7-.9 5.6-1.7c16.1-4.6 27.9-10.9 43.5-23.4c10.2-8.1 14.8-14.9 16.3-24c1-5.8 .5-12.7-1.4-18.5c-.6-1.9-1.7-5.5-2.3-8.1c-.7-2.5-1.7-5.5-2.2-6.6c-1.1-2.1-2.2-6.3-1.8-6.8c.1-.2 .8-.3 1.5-.3c2.1 0 4.9-1 7-2.5c3.9-2.8 8.3-9 9.5-13.4c.7-2.4 .3-6.9-1-13c-1.1-5.2-2.9-11.3-4.1-13.5c-.4-.8-1.2-2.7-1.7-4.4s-1.5-3.8-2.2-4.7c-.6-.9-1.5-2.4-1.9-3.5c-.4-1-1.9-3.9-3.4-6.3s-3.1-5.5-3.7-6.8c-2.2-4.4-17.5-27.9-26.2-40.2c-9-12.9-30.6-41.5-39.8-52.7c-5.6-6.8-8.1-10.2-8.1-10.6c0-.2-.3-.7-.6-1c-.6-.7-.6-.7 .5-1.1c7.7-2.9 17.3-8.3 22.9-12.9c11.2-9.2 19.8-19 26-29.6c4.5-7.7 6.5-13.7 9-26.9c1.7-9 1.8-10 1.8-15.8c0-10.7-2.1-23.9-4.7-29.9c-.6-1.4-1.4-3.4-1.7-4.4c-1.4-3.9-8.5-13.1-12.2-15.8c-2.8-2.1-7.8-5.3-10.1-6.5c-3.4-1.8-6.1-2.1-17.3-1.9c-11.3 .2-12.3 .4-19 3.8c-6.5 3.2-12.1 8.1-16.3 14c-5.8 8.1-9.5 24.1-11 47c-.2 3.5-.6 8.4-.8 10.8c-.5 5.1-2.8 15.5-3.8 17c-.3 .5-1.3 2.1-2.1 3.5c-.8 1.4-2.1 3.3-2.9 4.3c-1.5 1.7-2 2-6.5 4l-2.4 1.1-1.9-.8c-1-.4-3.7-1.2-5.9-1.6s-5.6-1.3-7.5-1.9c-1.9-.6-4.6-1.2-6-1.4c-1.4-.1-6.5-.9-11.4-1.7c-34.4-5.8-71.7-5.6-101.4 .5c-2.4 .5-5.5 1-6.9 1.2c-1.4 .2-4.1 .8-6.2 1.4c-2 .7-5.5 1.6-7.7 2.1c-2.2 .5-4.5 1.2-5.1 1.5c-1.7 .8-2.2 .7-4.8-1.1c-6.2-4.4-9.3-9.8-11.5-19.6c-.8-3.7-1.5-9.1-2.7-20.7c-1.6-15.8-3.7-28-5.7-33.6c-2.3-6.4-5.9-12.1-10.7-17.2c-7-7.3-13.1-10.5-22.8-12.3c-4-.7-15.4-1-18-.5zm12.1 24.5c4 .8 6.6 2.2 9.3 4.7c3.9 3.7 5.3 6.5 7.3 15c1.5 6.1 2.2 11 2.9 20.5c.7 9.6 1.2 13.1 2.2 18.5c2.9 15.9 7.9 27.2 15.4 35.5c5.8 6.3 13.3 10.3 22.3 11.9l2.8 .5-4.9 2.7c-2.7 1.5-5.7 3.3-6.7 4c-1 .7-1.9 1.2-2 1.2c-.2 0-.2-.7 0-1.5c.2-1 0-2.4-.4-3.9c-1.4-5.7-6.1-9.1-15.1-11c-6.7-1.4-13.2-3.6-15.6-5.1c-.7-.5-2-1-2.7-1.3c-3.6-1.2-19.4-15-20.7-18.1c-.3-.7-1.2-2-2.1-2.9c-1.6-1.6-6.2-9.6-7.9-13.6c-1.4-3.2-2.7-8.8-3.3-13.1c-1.2-9.7-1.2-23.8 .2-29.4c1.5-6.7 5.8-12.1 11.3-14.3c2.6-1.1 4.1-1.1 7.9-.3zm296.1 1c4.6 2.3 8.2 6.6 10.3 12.6c1.9 5.2 2.4 9.5 2.4 19.9c0 13.9-.7 17.9-4.6 25.3c-.9 1.7-1.9 3.8-2.3 4.7c-.8 1.9-5 7.5-8.9 12.1c-5.6 6.5-15 14.1-21.7 17.5c-5.8 2.9-9.5 4-18.9 5.4c-3.4 .5-6.6 1.1-7 1.2s.7-.8 2.4-2.2c4.5-3.6 9.2-8.4 10.2-10.4c1.7-3.6 4.4-9.7 4.4-10.2c0-.2 .4-1.4 1-2.6c2.5-5.3 5-20.9 6-37.1c1.3-20.7 4.9-31.2 12.1-34.9c6.5-3.3 10.3-3.7 14.8-1.5zM338.9 152c5 .3 9.6 .8 12.7 1.4c2.7 .5 6.2 1 7.8 1.2l2.9 .3-1.6 .5c-2.4 .8-4.9 3.2-6.4 6.2c-1.1 2.3-1.3 2.9-1.3 5.7c0 3.6 .8 5.7 3.1 8.3c2.4 2.7 5.5 4 11.5 4.9c4.6 .7 7.5 1.5 10 2.7l1.9 1-3.2 1.7c-8.4 4.5-15.9 11-21.2 18.6c-.9 1.3-1.8 2.4-1.9 2.4c-.7 0-2.5-5-3.9-10.9c-1.9-8-2.6-9.6-5.3-12.2c-3.8-3.7-9.5-4.8-14.2-2.7c-2.2 1-2.2 1-3.1 .3c-.5-.4-1.9-1.2-3.1-1.9c-3.9-1.8-8.8-1.4-12.3 1.1c-1.1 .8-1.2 .8-3.2 .1c-2.7-.8-6.5-.6-9.1 .5c-2.6 1.2-5.8 4.3-7 7c-.5 1.2-1.2 3.5-1.4 5.1c-.5 3.7-2.8 10.7-4.4 13.5c-1.1 2-1.2 2-1.7 1.4c-7-10.1-14.1-16.2-24.6-21.3c-2.5-1.2-4.5-2.2-4.4-2.3c.1-.1 2.3-.5 5-1.1c10.3-2.1 13.7-4.3 15.5-10.1c.9-3.1 .8-6.2-.4-8.9c-1.5-3.5-5.9-6.5-10-7c-1.1-.1-1.9-.3-1.8-.4c.6-.6 7.8-2.2 12.2-2.7c2.9-.3 6.3-.8 7.6-1.1c2.5-.6 9.2-1.3 14-1.5c8-.3 34.4-.2 41.3 .1zm79.5 6.8c-1.9 2-4.2 7.7-4.2 10.5c0 2.5 1.2 4.9 4.8 9.6c2 2.6 3.7 4.8 3.7 4.9c0 .1-.5 0-1-.2c-.6-.2-2.5-.8-4.2-1.3l-3.1-.9-.3-1.6c-.3-2.2-1.5-4.2-3.6-6.6c-2.5-2.8-8-7-11.7-9c-1.7-.9-3-1.7-3-1.7c.1-.1 1.2 0 2.6 .2c4.1 .6 11.9-.9 16-3c1-.5 4.2-1.9 4.8-2c.1 0-.3 .4-.8 1zm-8.8 47.7c3.4 .9 9.9 4.2 13.1 6.7c4.5 3.4 8.5 8.6 11.8 15.1c4.1 8.1 5 12.3 4.7 23c-.2 7.1-.2 7.2-1.4 9.8c-.7 1.4-1.2 2.9-1.2 3.3c0 .7-2.7 4.9-4.5 7.3c-3.7 4.6-10.2 9.5-13 10c-.8 .2-2.4 .7-3.4 1.2c-1.5 .8-2.4 .9-5.2 .9c-4.4 0-10-.9-13.6-2.1c-2.7-.9-3.4-1.3-3.1-1.5c.1 0 1.2-.8 2.5-1.6c9.2-6 15.5-18.4 16.8-33c.7-8-.3-16-3-23.7c-2.2-6.2-4.1-9.6-8.8-15.6l-.8-1 3.1 .3c1.7 .2 4.4 .6 6 1zm-174 1.9c-3.9 5.3-6 9.5-7.7 15.5c-3.1 10.7-2.8 25.2 .7 35.6c2.9 8.7 9.6 17 16.1 20.1c.8 .4 1.5 .8 1.5 1c0 .4-5.9 3.7-7.1 4c-.6 .2-2.9 .8-5 1.5c-4.7 1.4-7.3 1.5-11.5 .3c-6.8-1.9-11.3-4.3-15-7.9c-2.5-2.4-5.8-7.1-5.8-8.2c0-.4-.7-2.2-1.6-4l-1.6-3.3-.2-7.1c-.2-7.8 .2-13.8 1.2-16.8c1.2-3.5 5.7-12.2 7.9-15.2c5.1-6.8 13.1-12.9 20-15.3c1.9-.7 3.4-.9 5.6-.9h3l-.6 .8zm101.3 17.8c2.1 1 2.7 1.1 5.2 1l2.8-.1-.3 1.7c-.2 1-.4 5.2-.5 9.5c-.3 8.3 .2 16.3 1.1 20.5c.3 1.4 .5 2.6 .5 2.7c-.1 .1-1.7-.2-3.6-.6c-10.5-2.2-27.2-3.3-31.6-2.2c-1.3 .3-4.6 1-7.4 1.4c-2.7 .4-6.5 1.2-8.2 1.7c-1.8 .5-3.2 .8-3.2 .6c0-.2 .5-1.9 1-3.7c1-3.3 1-3.6 1-13.1c0-8.4-.1-10.2-.8-14.1c-.5-2.4-1-4.8-1.1-5.3l-.2-.8 1.9 .9c3.8 1.9 8.4 1 12.2-2.7l1.7-1.6 1.6 1.9c1.9 2.2 4.4 3.5 7.5 4.1c4.9 .9 10.6-1.5 13.2-5.5l.7-1 2 1.8c1.1 1 3.1 2.3 4.4 2.9zm133.3 18.4c3.6 4.7 11.5 16 12.4 17.9c.3 .6 1.2 1.8 2 2.7c.7 .8 2.2 2.8 3.1 4.3c1 1.5 2.5 3.6 3.4 4.6c1 1 2.2 2.8 2.9 3.9c.6 1 1.8 3 2.7 4.3c3 4.2 12.7 21.5 17 30.1c2.6 5.3 4.5 10.7 3.9 11.3c-.1 .1-2.6-.2-5.6-.8c-2.9-.6-5.6-1-5.9-1c-.3 0-2 1.3-3.8 2.9s-3.9 3.2-4.6 3.6c-4.2 2.2-6 7.2-4.3 12.2c.8 2.4 3.8 9.8 5.7 13.9c2.6 5.7 7.5 22.3 8.3 27.5c.4 2.8 .2 4.6-.9 6.5c-.8 1.6-6 6.4-9.8 9.1c-4.9 3.5-21.4 12.5-22.5 12.2c-.6-.2-2.9-7-3.7-11.1c-.7-3.3-4.6-11.6-8.2-17c-2.9-4.4-11.2-12.6-15.6-15.6c-3.8-2.5-8.2-4.6-11.2-5.4c-5-1.3-17-1.1-22.8 .3c-3.4 .9-8.1 3.2-11.3 5.7l-2.7 2.1-3.5-1.7c-4.6-2.2-8.7-3.2-13.1-3.2c-4.2 0-7 .7-11.2 2.7c-5.9 2.8-9.8 6.5-12.9 12.1c-1.5 2.8-2 3.1-5.6 3.1c-3.6 0-10.8 2.7-14.9 5.4c-6.7 4.6-12.7 11.9-15.2 18.7c-1 2.6-1.9 7.3-1.9 9.4c0 1.2-.3 .6-1.5-2.9c-.8-2.4-2-5.1-2.6-6c-.6-.9-1.4-2.2-1.7-2.8c-.9-1.8-8-8.7-11.8-11.4c-4.9-3.5-9.7-5.2-16.7-6c-2.2-.2-2.4-.3-2.9-1.4c-1-2.6-4.2-6.8-6.9-9.3c-5.4-5-11.3-7.1-19.3-6.8c-3.8 .2-5.1 .4-8.2 1.4c-2 .7-4.5 1.7-5.6 2.3l-1.9 1.1-3.6-2.4c-6.9-4.6-15.6-7.2-24.3-7.2c-2.9 0-5.6 .2-7.2 .6c-3.6 .9-11.1 4.2-14.4 6.3c-3.7 2.4-12.7 11.5-14.9 15c-6.8 10.9-9.1 16.1-10.3 23.1c-.2 1.4-.3 1.5-1.3 1.3c-2.1-.5-9.7-4.5-15-8c-7.4-4.9-12.4-8.7-15.6-12.2l-2.8-2.9 .2-2.7c.6-6.5 2.2-11.9 8-28.2c6.8-19.4 6.6-18.7 6.7-21.8c0-3.7-.9-5.9-3.7-8.7c-4.2-4.1-8.2-4.9-15.9-3.3c-2.2 .5-4.1 .8-4.2 .7s.3-1.4 .8-2.9c2.2-6.3 10.9-23.7 15.5-30.6c1.3-2 2.8-4.4 3.2-5.2s2.5-3.9 4.5-6.8s4.1-6.1 4.7-7.1c1.3-2.4 7.1-10.7 10-14.3c1.2-1.5 4-5.4 6.3-8.8s4.1-6 4.2-6c.1 .1-.1 1.4-.3 3c-.5 3.7-.2 15.4 .6 19.5c2.2 11.9 8.1 24.1 15 31.1c4.4 4.4 12.1 10.2 15.6 11.7c.8 .3 2.9 1.2 4.4 1.9c5.9 2.5 16.7 4.1 23.7 3.4c15.2-1.4 24.1-5.2 36.8-15.5l3.3-2.7 2.4 2.7c1.4 1.4 2.4 2.7 2.3 2.7c0 0-1.1 .3-2.3 .5c-3.1 .5-6.2 2-8.3 4c-2.4 2.2-3.4 2.7-7.9 3.9c-4.7 1.2-7.8 2.8-9.8 5c-2.9 3.2-3.9 6.5-3.2 10.7c.5 3.1 1.4 4.9 3.5 7c2.3 2.3 5.3 3.4 9.7 3.7l3.3 .2 1.8 2.6c5.3 7.8 13.3 13.8 20.2 15.2l2.4 .5 2.2 4.8c5.2 11.4 10 18 17 23.2c4.1 3.1 9.3 4.6 16.4 4.6c5.4 0 8.8-.7 12.9-2.7c8.2-4.1 16.6-13.6 22.1-24.8l1.8-3.7 2.7-.2c3.7-.3 8.5-1.8 11.2-3.4c3.2-1.9 8.2-6.7 9.3-9c.5-1 1.5-2.6 2.1-3.4s1.4-2.5 1.7-3.8c.4-1.2 .7-2.4 .8-2.7s.9-.5 1.9-.7c3.8-.5 8.8-4.2 10.9-8c.9-1.6 1.2-2.7 1.3-5.1c.2-2.7 .1-3.2-.8-5.1c-.6-1.2-1.8-2.7-2.6-3.5c-.9-.7-1.5-1.4-1.4-1.4c.1 0 1.5 .3 3.2 .6c4.2 .7 13.8 .7 19 0c5.9-.9 10-2.2 15.9-5c7.5-3.6 11.2-6.5 17.5-13.5c4.1-4.5 5.4-6.4 8.4-12.5c4.7-9.4 6.3-16.7 6.3-28.8c0-4.3-.1-8.3-.2-9.1l-.3-1.4 .9 1.2c.5 .6 2.5 3.2 4.4 5.6zm-99.6 51.1c3.2 2.4 6.7 4.7 10.2 6.5c1.9 1 3.3 1.9 3 1.9c-1.4 0-4.8-.9-6.9-1.9c-3-1.5-8.7-3.1-10.9-3.1h-1.7l2-2.3c1.1-1.3 2.2-2.3 2.3-2.3s1 .6 1.9 1.3zM354 307.7c-.4 1.2-.7 3.2-.8 4.7c0 3.4 1.2 5.8 4.5 8.8l2.5 2.4-.8 1.7c-.5 .9-1 1.7-1.3 1.7s-1.6-.5-3.1-1.2c-1.4-.6-3.6-1.4-4.9-1.7c-1.2-.3-2.9-.9-3.6-1.2c-1.8-.9-5.8-3.7-5.8-4.1c0-.2 .9-1.1 2.1-2.1c2.3-1.9 4.3-4.5 6-7.6c1-1.8 1.4-2.1 3.4-2.8c1.2-.5 2.3-.9 2.3-.8s-.3 1-.7 2.2zm-63.1-.2c2.1 4.6 2.8 5.7 6 8.8l3.4 3.4-2.5 1.2c-1.4 .7-3.1 1.6-3.7 2.1s-2.3 1.2-3.7 1.7l-2.5 .8-.7-.8c-.4-.5-.9-1.4-1.3-1.9c-.5-1-.5-1.2 .4-2.3c.5-.7 1.5-2.2 2.2-3.6c1-2 1.2-2.8 1.2-5.1c0-1.5-.1-3.2-.3-3.8c-.3-1-.2-1.1 .6-.9c.5 .2 .9 .3 .9 .3zm34.7 35.8c.9 .8 2.1 1.7 2.8 2.1l1.3 .7-2.2 4.1c-2.9 5.4-3 5.6-5.7 5.3c-1.5-.2-2.2-.5-2.2-.8c0-.3-.5-1.2-1.1-2.1c-.7-.8-1.5-2.7-2-4.1s-1.1-2.9-1.4-3.4c-.3-.4-.5-.9-.5-1c0-.3 3.7-3.2 5.2-3.9c1.1-.6 1.2-.6 2.7 .6c.9 .7 2.2 1.8 3.1 2.6zM430.3 387c3.9 1.9 9 7.7 11.9 13.3c4.9 9.9 5.1 22.5 .4 30.6c-1.2 2.1-5.8 7.2-8.3 9.3c-2.4 2-11.5 6.6-16 8.1c-3.1 1-3.3 1-15 1.2c-13.7 .2-15.5 0-22.3-2.4c-2.7-.9-6.5-2.2-8.5-2.9c-2-.7-4.2-1.5-4.8-1.8c-.6-.3-2.3-1.2-3.7-1.9c-5.1-2.6-12.5-10-14.3-14.6c-.5-1.3-1.3-2.8-1.6-3.3c-.8-1.2-.9-6.5-.1-8c.6-1.2 4.6-5.1 5.9-5.8c.8-.4 1.2-.3 3.3 1.1c4 2.6 5.9 3.3 8.8 3.3c6.3-.1 11.4-5.1 12.8-12.3c.3-1.7 1.1-4.6 1.8-6.5c1.2-3.3 1.2-3.4 2.2-3.2c1.4 .3 2.7 1.7 6.3 6.3c5 6.4 6.9 7.7 11.9 7.7c2.9 0 3.6-.2 5.6-1.1c4.3-2.1 7.2-5.9 7.9-10.5c.6-3.7 2.6-5.9 6.6-7.2c1.9-.6 7.1-.1 9.1 .8zm-209 5c1.9 .9 2.5 1.9 3.2 4.8c1 4.2 4 8 7.7 9.8c1.9 .9 2.6 1.1 5.4 1.1c4.9 0 6.5-.9 12.7-6.9c5.4-5.3 7.1-6.5 8.1-5.6c.3 .3 .7 2.1 .9 4.2c.2 2 .7 4.8 1 6.1c1.2 5.3 4.7 9.7 8.7 11.1c4 1.3 9.6 .1 13.4-2.9c.8-.6 1.7-1.2 2.1-1.2c1.1 0 5.1 2.2 6.1 3.4c2 2.4 3.5 5.5 3.4 7.1c0 4.1-4.3 11.9-8.8 16.1c-7.3 6.8-17.2 11.1-33 14.3c-9.9 2-13.6 2.1-22.4 .6c-8.7-1.5-10.9-2.2-17.5-5.5c-5.6-2.8-6.1-3.2-9.6-6.7c-4.9-4.9-7.5-9.5-8.6-15c-.5-2.7-.2-12.8 .5-16c1.4-6.4 8.3-16.2 13.2-18.8c3-1.5 10.2-1.6 13.3-.2z"/></svg>