<svg xmlns="http://www.w3.org/2000/svg" viewBox="0 0 640 512"><path d="M280.8 290.7c8.9 0 27.3 7.1 34.1 13.2c3.6 3.1 5.3 2.9 15.4-3.5c19.8-12.3 40.8-11.8 56.8 1.2c15.7 13 20 36 10.4 54.2c-2.9 5.2-21.5 25.3-41.5 45l-36.5 35.5-36.5-35.5c-38.9-37.9-45.4-47.3-45.7-65.6c0-19.6 7.7-32.2 25.3-40c5.3-2.4 13.5-4.5 18.1-4.5zm157-89c0 9.2 .7 10.6 7.2 13.3c8.9 3.5 25.1 20.6 30.7 32.4c3.9 8.3 4.3 18 4.3 112l0 102.9-6.5 11.8c-8.2 15.1-19.3 25.6-34.5 32.4c-12.1 5.4-12.6 5.4-118.3 5.4l-106.3 0-12.6-5.7c-7-3.1-17.4-10.4-23.4-16.8C160.5 470.8 160 467.7 160 358.4c.2-84.2 .7-96.3 4.3-107c5.1-14 12.3-23.7 25.4-32.7c8-5.7 8.9-7.6 8.9-17l0-10.4 239.1 0 0 10.4zM227.6 226.6c0 5.7-1.5 7.3-10.9 10.7c-12.6 4.7-21.7 14.4-25.3 27c-1.9 5.9-2.4 38.8-1.9 99.9c.7 86.8 1 91.6 5.8 99.4c2.7 4.5 8.5 10.7 13.1 13.5c8 5.4 8.2 5.4 110.3 5.4c114.5 0 114 0 125.4-16.3l5.8-8.5 0-97.8c0-106.3 0-105.8-13.8-116.2c-3.4-2.8-11.1-6.1-16.9-7.6c-9.2-2.4-10.4-3.6-10.4-9.5l0-6.9-181.1 0 0 6.9zm201.7-81.4c8.7 8.3 8.4 22.7-.2 29.4c-6.3 5-9 5-110.1 5H215.3l-5.8-5.9c-8.2-7.8-8.2-20.6 0-28.4l5.8-5.9H423.5l5.8 5.9zM333.7 58.8c11.8-6.1 33.6-6.2 45.9 0c18.6 9.2 28.7 28.6 25.8 49.2c-2.9 20.1-1 19.4-48.8 19.4h-42l-2.7-6.6c-9.9-24.6-.9-50.4 21.8-62zM269.9 3.4c28-10.2 61.1 3.5 72.2 29.8l3.8 8.8-9.7 2.6c-23.7 6.2-41 28.4-41 52.6v13.7h-9.2c-13 0-33.3-10.7-41.5-21.8s-13.3-29.8-10.9-41.4C237.3 28 252.5 9.5 269.9 3.4z"/></svg>