<svg xmlns="http://www.w3.org/2000/svg" viewBox="0 0 569 512"><path d="M341.3 25.7c10.2 1.4 16.7 11.9 13.4 21.7l-.9 2.1L253.8 249.7c-5.7 11.4-21.4 12.1-28.3 2.1l-1.3-2.1-25-50.1-21.8 43.5c2.7 1.2 5.1 3 6.9 5.6l1.3 2.2L242.1 364c-.1-2-.2-3.9-.3-5.9l0-.6 0-1.9c0-63.9 46.8-116.8 107.9-126.4c-13.1-19-21.2-41.7-22.4-66.2l-.2-6.5c0-69.8 55.9-126.6 125.4-128l3.4 .3c7.7 1.4 13.4 8.2 13.4 16.2l0 41.8c32.5 6.6 56.9 35.3 56.9 69.7s-24.4 63.1-56.9 69.7l0 41.9c0 8-5.7 14.7-13.4 16.2l-3.4 .3c-25.3-.5-48.9-8.4-68.6-21.6l0 78.4 97.3 0c8 0 14.8 5.7 16.2 13.4l.3 3.4c-1.3 67.3-54.7 121.9-121.5 125.3l-6.5 .2c-.7 0-1.3 0-2-.1l-.6 .1c-1.2 0-2.3-.1-3.5-.2c-.3 0-.5 0-.8 0c-1.6-.1-3.2-.2-4.8-.4c-.7-.1-1.4-.1-2.1-.2c-1.5-.2-2.9-.3-4.4-.6c-.5-.1-1.1-.1-1.6-.2c-1.5-.2-2.9-.5-4.4-.8c-.6-.1-1.3-.2-1.9-.4c-3.8-.8-7.6-1.7-11.3-2.9c-.1 0-.3-.1-.4-.1c-1.6-.5-3.2-1-4.8-1.6c-.4-.2-.9-.3-1.3-.5c-3.5-1.3-6.9-2.7-10.2-4.2c-.4-.2-.7-.4-1.1-.5c-10.8-5.2-20.8-11.8-29.7-19.7c-.9-.8-1.8-1.6-2.6-2.4c-1.9-1.8-3.8-3.7-5.7-5.6c-2 6.6-8 11.8-15.8 11.8l-35.8 0 3.7 7.3 .9 2.1c3.6 10.5-4.2 21.9-15.7 21.9l-86.3 0c-12.3 0-20.3-13-14.8-24l3.7-7.3-35.8 0c-12.3 0-20.3-13-14.8-24l86.8-173.7c-2.6-1.2-5-3-6.8-5.6l-1.3-2.1L44.5 49.5C39 38.5 47 25.6 59.3 25.6l279.8 0 2.2 .1zM146.8 458l47.9 0-1.4-2.9-45.1 0-1.4 2.9zm237.3-3.9c43.6-6.2 78.1-40.7 84.3-84.3l-84.3 0 0 84.3zM271.3 369.8c6.1 43 39.8 77 82.5 83.9c.6 .1 1.2 .2 1.8 .3l0-84.2-84.3 0zM99.8 426.7l30.8 0 25.3-50.6 1.3-2.2c6.5-9.3 20.6-9.3 27.1 0l1.3 2.2 25.3 50.6 30.8 0L170.7 284.9 99.8 426.7zm62.6 0l16.6 0-8.3-16.6-8.3 16.6zM355.6 257c-43.6 6.2-78 40.7-84.2 84.3l84.2 0 0-84.3zM441 57.9c-48.2 6.9-85.3 48.4-85.3 98.6l.1 5.1c2.4 47.9 38.6 86.8 85.2 93.5l0-28.9c-32.5-6.6-56.9-35.3-56.9-69.7s24.4-63.1 56.9-69.7l0-28.9zM159.3 215.7l23.9-47.8L126.4 54.1l-47.8 0 80.8 161.6zm55.7-47.8L239 215.7 319.8 54.1l-47.8 0L215.1 167.8zM441 116.2c-16.6 5.9-28.4 21.6-28.4 40.2s11.9 34.3 28.4 40.2l0-80.4zm28.4 80.4c16.6-5.9 28.4-21.6 28.4-40.2s-11.9-34.3-28.4-40.2l0 80.4zM199.2 136l41-82-82 0 41 82z"/></svg>