<svg xmlns="http://www.w3.org/2000/svg" viewBox="0 0 640 512"><path d="M320 32c8.7 0 20.4 3.3 28.5 13.2l3.3 4.6L538.9 361.7l2.6 5.2c4.9 12.1 2.3 25.1-4.5 34.3c-7.3 9.9-18.7 14.9-29.8 14.9l-68.3 0 5.3 10.5 2 4.6c8.1 23.4-9.3 48.8-35 48.8L229 480c-27.5 0-45.3-28.9-33.1-53.5l5.2-10.5-68.3 0c-11.1 0-22.5-5-29.8-14.9c-7.8-10.5-10-26-1.9-39.5L288.2 49.8l3.3-4.6C299.6 35.3 311.3 32 320 32zM236.9 416l-12.4 24.8c-1.4 2.9 .2 6.2 3.1 7l1.3 .2L411 448c3.2 0 5.5-3 4.9-5.9l-.4-1.2L403.1 416l-166.1 0zM324.4 66.2c-1.8-3-7-3-8.8 0L128.5 378.1c-1.4 2.4 .2 5.1 3.1 5.7l1.3 .2 84.3 0 69.8-139.6 2.8-4.8c14.5-20.8 45.9-20.8 60.4 0l2.8 4.8L422.8 384l84.3 0c3.2 0 5.4-2.4 4.8-4.8l-.4-1L324.4 66.2zm.1 192.5c-1.8-3.7-7-3.7-8.9 0L252.9 384l134.1 0L324.4 258.8z"/></svg>