<svg xmlns="http://www.w3.org/2000/svg" viewBox="0 0 640 512"><path d="M540.4 64c24.8 0 41.5 24.5 33.7 47.1l-1.9 4.5L415.9 428.3c-12.3 24.6-46 26.1-61 4.6l-2.7-4.6L320 364l-32.2 64.3c-12.3 24.6-46 26.1-61 4.6l-2.7-4.6L67.8 115.5C55.9 91.9 73.2 64 99.6 64l440.8 0zM99.6 96l-1 .1c-2.1 .6-3.3 3-2.3 5.1L252.8 414c1.2 2.3 4.2 2.6 5.8 .9l.6-.9 42.9-85.8L195.8 115.5c-3.2-6.4-4.2-13.1-3.6-19.5L99.6 96zm348.2 0c.5 4.9 .1 10-1.7 15.1l-1.9 4.5L337.9 328.2 380.8 414c1.2 2.3 4.2 2.6 5.8 .9l.6-.9L540.4 107.7l3.2-6.5c1-2.1-.2-4.5-2.3-5.1l-1-.1-92.6 0zM227.6 96l-1 .1c-2.1 .6-3.3 3-2.3 5.1L320 292.4l92.4-184.8 3.2-6.5c1-2.1-.2-4.5-2.3-5.1l-1-.1L227.6 96z"/></svg>