<svg xmlns="http://www.w3.org/2000/svg" viewBox="0 0 640 512"><path d="M318.7 .1C337.5 1.7 352 17.6 352 36.4l0 79.2c64.1 14.6 112 71.9 112 140.4s-47.9 125.8-112 140.4l0 79.2c0 18.9-14.5 34.7-33.3 36.3l-3.8 .1C175.8 509.3 64 395.7 64 256S175.8 2.7 314.9 0l3.8 .1zM315.5 32C193.9 34.4 96 133.8 96 256c0 118.4 91.9 215.4 208.2 223.5l11.3 .5c1.9 0 3.5-1.1 4.2-2.7l.3-1.8 0-75.6c-79.5 0-144-64.5-144-144s64.5-144 144-144l0-75.6c0-2.5-2-4.5-4.5-4.4zM320 144c-61.9 0-112 50.1-112 112s50.1 112 112 112l0-224zm32 219.3c46.3-13.8 80-56.6 80-107.3s-33.7-93.6-80-107.3l0 214.7z"/></svg>