<svg xmlns="http://www.w3.org/2000/svg" viewBox="0 0 640 512"><path d="M318.7 .1C337.5 1.7 352 17.6 352 36.4L352 224l187.6 0c18.9 0 34.7 14.5 36.3 33.3l.1 3.8C573.3 395.8 466.7 505 333 511.7l-13 .3c-1 0-2-.1-3-.1l-2.2 .1c-1.9 0-3.8-.2-5.6-.3c-1.3-.1-2.7-.1-4-.2c-3-.2-6-.4-8.9-.7c-1.1-.1-2.3-.2-3.4-.3c-3.3-.4-6.6-.8-9.9-1.3c-.9-.1-1.8-.3-2.6-.4c-3-.5-6-1-9-1.6c-1.3-.3-2.7-.5-4-.8c-3.1-.7-6.2-1.4-9.3-2.2c-.7-.2-1.3-.3-2-.5c-7.3-1.9-14.5-4.1-21.5-6.6c-.9-.3-1.9-.7-2.8-1c-3.1-1.2-6.2-2.4-9.3-3.7c-.5-.2-1.1-.4-1.6-.7c-3-1.3-6-2.6-9-4c-.9-.4-1.8-.8-2.7-1.3c-2.9-1.4-5.7-2.8-8.5-4.3c-.8-.4-1.5-.8-2.2-1.2c-2.8-1.5-5.5-3.1-8.2-4.7c-.9-.6-1.9-1.1-2.8-1.7c-2.3-1.4-4.5-2.8-6.7-4.2c-1.3-.8-2.6-1.7-3.8-2.5c-2-1.3-3.9-2.7-5.8-4.1c-1.4-1-2.8-2-4.2-3c-1.8-1.4-3.6-2.8-5.4-4.2c-1.5-1.2-3.1-2.4-4.6-3.7c-1.5-1.2-2.9-2.5-4.3-3.7c-1.6-1.4-3.2-2.8-4.8-4.2c-1.6-1.5-3.2-2.9-4.7-4.4c-1.4-1.3-2.7-2.6-4.1-4s-2.7-2.7-4-4.1c-1.5-1.6-3-3.1-4.4-4.7c-1.5-1.7-3-3.4-4.5-5.1c-1.1-1.3-2.3-2.7-3.4-4c-1.2-1.5-2.5-3-3.7-4.6c-1.4-1.8-2.8-3.6-4.2-5.4c-1-1.4-2-2.7-3-4.1c-1.4-1.9-2.7-3.9-4.1-5.8c-.9-1.3-1.7-2.6-2.5-3.8c-1.5-2.3-3-4.6-4.4-7c-.6-.9-1.1-1.9-1.7-2.8c-1.6-2.7-3.2-5.5-4.7-8.3c-.5-.9-1-1.9-1.5-2.8c-1.3-2.5-2.6-5.1-3.9-7.7c-.4-.9-.8-1.8-1.2-2.7c-1.4-3-2.8-6-4-9c-.2-.5-.4-1.1-.7-1.6c-1.3-3.1-2.5-6.2-3.7-9.3c-.3-.9-.7-1.9-1-2.8c-2.5-7-4.7-14.2-6.5-21.5c-.2-.7-.3-1.3-.5-2c-.8-3.1-1.5-6.2-2.2-9.3c-.3-1.3-.5-2.7-.8-4c-.6-3-1.1-6-1.6-9c-.2-1-.3-2-.4-3c-.5-3.2-.8-6.4-1.2-9.6c-.2-1.7-.3-3.4-.5-5.1c-.2-2.4-.4-4.8-.5-7.2c-.1-1.3-.1-2.7-.2-4c-.1-1.9-.2-3.7-.2-5.6l.1-2.4c0-.9-.1-1.8-.1-2.8C64 116.3 175.8 2.7 314.9 0l3.8 .1zM100.4 256c-2.3 0-4.1 1.7-4.3 3.9c1 57.4 23.5 109.6 59.9 148.7c19.1 20.5 42 37.4 67.6 49.7c.5 .2 1 .4 1.4 .7c12.5 5.9 25.7 10.6 39.4 14.1c3.7 .9 7.4 1.8 11.1 2.5c6.9 1.4 13.9 2.5 21 3.2c.6 .1 1.2 .1 1.9 .2c3.1 .3 6.2 .6 9.4 .7l1.9 .1c2.1 .1 4.2 .1 6.4 .2c1.6-.2 2.9-1.2 3.5-2.6l.3-1.8L320 256l-219.6 0zM352 475.6c0 .7-.1 1.4-.1 2.2C455.4 463 536.1 377.5 543.5 271.8l.5-11.3c0-1.9-1.1-3.5-2.7-4.2l-1.8-.3L352 256l0 219.6zM315.5 32C204.6 34.2 113.6 116.9 98.3 224.1c.7 0 1.4-.1 2.2-.1L320 224l0-187.6c0-2.5-2-4.5-4.5-4.4z"/></svg>