<svg fill="none" height="171" viewBox="0 0 256 171" width="256" xmlns="http://www.w3.org/2000/svg" xmlns:xlink="http://www.w3.org/1999/xlink"><clipPath id="a"><path d="m0 0h256v170.667h-256z"/></clipPath><mask id="b" height="177" maskUnits="userSpaceOnUse" width="262" x="-3" y="-3"><path d="m258.37-2.37036h-260.74036v175.40736h260.74036z" fill="#fff"/></mask><g clip-path="url(#a)"><g mask="url(#b)" opacity=".05"><path clip-rule="evenodd" d="m146.963-.00004959v42.66664959c0 10.473-8.49 18.963-18.963 18.963h-14.222c-2.619 0-4.741-2.1225-4.741-4.7408v-14.2222-42.66664959c0-10.47295041 8.49-18.96295041 18.963-18.96295041h14.222c2.618 0 4.741 2.1225 4.741 4.7407zm23.704-18.96295041c10.473 0 18.963 8.49 18.963 18.96295041 0 10.47294959-8.49 18.96294959-18.963 18.96294959s-18.963-8.49-18.963-18.96294959v-14.22225041c0-2.6182 2.122-4.7407 4.74-4.7407zm-85.3337 37.9259h-42.6667c-10.4729 0-18.9629-8.49-18.9629-18.96294959v-14.22225041c0-2.6182 2.1225-4.7407 4.7407-4.7407h14.2222 42.6667c10.4729 0 18.9627 8.49 18.9627 18.96295041v14.22224959c0 2.6182-2.122 4.7407-4.7405 4.7407zm18.9627 23.7037c0 10.473-8.4898 18.963-18.9627 18.963-10.473 0-18.963-8.49-18.963-18.963 0-10.4729 8.49-18.9629 18.963-18.9629h14.2222c2.6185 0 4.7405 2.1225 4.7405 4.7407zm170.667 42.6667v42.6667c0 10.473-8.49 18.963-18.963 18.963h-14.222c-2.619 0-4.741-2.123-4.741-4.741v-14.222-42.6667c0-10.473 8.49-18.963 18.963-18.963h14.222c2.618 0 4.741 2.1225 4.741 4.7408zm-80.593-42.6667v-42.66664959c0-10.47295041 8.49-18.96295041 18.963-18.96295041h14.223c2.618 0 4.74 2.1225 4.74 4.7407v14.22225041 42.66664959c0 10.473-8.49 18.963-18.963 18.963h-14.222c-2.618 0-4.741-2.1225-4.741-4.7408zm-23.703 18.963c-10.473 0-18.963-8.49-18.963-18.963 0-10.4729 8.49-18.9629 18.963-18.9629s18.963 8.49 18.963 18.9629v14.2222c0 2.6183-2.123 4.7408-4.741 4.7408zm85.333-37.9259h42.667c10.473 0 18.963 8.49 18.963 18.9629v14.2222c0 2.6183-2.123 4.7408-4.741 4.7408h-14.222-42.667c-10.473 0-18.963-8.49-18.963-18.963v-14.2222c0-2.6182 2.122-4.7407 4.741-4.7407zm-18.963-23.70374959c0-10.47295041 8.49-18.96295041 18.963-18.96295041s18.963 8.49 18.963 18.96295041c0 10.47294959-8.49 18.96294959-18.963 18.96294959h-14.222c-2.619 0-4.741-2.1225-4.741-4.7407zm-23.704 104.29604959h-42.666c-10.473 0-18.963-8.4898-18.963-18.9627v-14.2222c0-2.6183 2.122-4.7408 4.74-4.7408h14.223 42.666c10.473 0 18.963 8.49 18.963 18.963v14.2222c0 2.6185-2.122 4.7405-4.74 4.7405zm18.963 23.704c0 10.473-8.49 18.963-18.963 18.963s-18.963-8.49-18.963-18.963 8.49-18.963 18.963-18.963h14.223c2.618 0 4.74 2.122 4.74 4.741zm-251.259 42.667c0-10.473 8.49-18.963 18.96295041-18.963 10.47294959 0 18.96294959 8.49 18.96294959 18.963s-8.49 18.963-18.96294959 18.963h-14.22225041c-2.6182 0-4.7407-2.123-4.7407-4.741zm37.9259-85.3337v42.6667c0 10.473-8.49 18.963-18.96294959 18.963h-14.22225041c-2.6182 0-4.7407-2.123-4.7407-4.741v-14.222-42.6667c0-10.473 8.49-18.963 18.96295041-18.963h14.22224959c2.6182 0 4.7407 2.1225 4.7407 4.7408zm23.7037-18.963c10.473 0 18.963 8.49 18.963 18.963 0 10.4729-8.49 18.9627-18.963 18.9627-10.4729 0-18.9629-8.4898-18.9629-18.9627v-14.2222c0-2.6183 2.1225-4.7408 4.7407-4.7408zm-42.66664959-42.6666h42.66664959c10.473 0 18.963 8.49 18.963 18.9629v14.2222c0 2.6183-2.1225 4.7408-4.7408 4.7408h-14.2222-42.66664959c-10.47295041 0-18.96295041-8.49-18.96295041-18.963v-14.2222c0-2.6182 2.1225-4.7407 4.7407-4.7407zm-18.96295041-23.70374959c0-10.47295041 8.49-18.96295041 18.96295041-18.96295041 10.47294959 0 18.96294959 8.49 18.96294959 18.96295041 0 10.47294959-8.49 18.96294959-18.96294959 18.96294959h-14.22225041c-2.6182 0-4.7407-2.1225-4.7407-4.7407zm165.926 170.66704959v42.666c0 10.473-8.49 18.963-18.963 18.963h-14.222c-2.619 0-4.741-2.122-4.741-4.74v-14.223-42.666c0-10.473 8.49-18.963 18.963-18.963h14.222c2.618 0 4.741 2.122 4.741 4.74zm23.704-18.963c10.473 0 18.963 8.49 18.963 18.963s-8.49 18.963-18.963 18.963-18.963-8.49-18.963-18.963v-14.223c0-2.618 2.122-4.74 4.74-4.74zm-104.2967-23.704v-42.6667c0-10.473 8.49-18.963 18.963-18.963h14.2222c2.6185 0 4.7405 2.1225 4.7405 4.7408v14.2222 42.6667c0 10.473-8.4898 18.963-18.9627 18.963h-14.2222c-2.6183 0-4.7408-2.123-4.7408-4.741zm-23.7037 18.963c-10.4729 0-18.9629-8.49-18.9629-18.963s8.49-18.963 18.9629-18.963c10.473 0 18.963 8.49 18.963 18.963v14.222c0 2.618-2.1225 4.741-4.7408 4.741zm85.3334-37.926h42.667c10.473 0 18.963 8.49 18.963 18.963v14.222c0 2.618-2.123 4.741-4.741 4.741h-14.222-42.667c-10.473 0-18.963-8.49-18.963-18.963v-14.222c0-2.619 2.122-4.741 4.741-4.741zm-18.963-23.7037c0-10.473 8.49-18.963 18.963-18.963s18.963 8.49 18.963 18.963c0 10.4729-8.49 18.9627-18.963 18.9627h-14.222c-2.619 0-4.741-2.122-4.741-4.7405zm-23.7037 104.2967h-42.6667c-10.4729 0-18.9629-8.49-18.9629-18.963v-14.223c0-2.618 2.1225-4.74 4.7407-4.74h14.2222 42.6667c10.4729 0 18.9627 8.49 18.9627 18.963v14.222c0 2.618-2.122 4.741-4.7405 4.741zm109.0367 23.703v-42.666c0-10.473 8.49-18.963 18.963-18.963h14.223c2.618 0 4.74 2.122 4.74 4.74v14.223 42.666c0 10.473-8.49 18.963-18.963 18.963h-14.222c-2.618 0-4.741-2.122-4.741-4.74zm42.667-42.666c0-10.473 8.49-18.963 18.963-18.963s18.963 8.49 18.963 18.963-8.49 18.963-18.963 18.963h-14.222c-2.619 0-4.741-2.123-4.741-4.741z" fill="#b3e244" fill-rule="evenodd"/></g></g></svg>