<svg fill="none" height="64" viewBox="0 0 64 64" width="64" xmlns="http://www.w3.org/2000/svg"><path clip-rule="evenodd" d="m23.4144 10.6404c3.4273-6.85399 13.0124-7.06961 16.8246-.64407l.3507.64407 3.9549 7.9132 3.6163-3.6146.1111-.0989.1632-.1459.0903-.0816.0937-.0763c2.8415-2.3158 6.9879-2.2377 9.7344.2604l.2604.2482.0017.0018.2483.2604c2.4959 2.7461 2.5746 6.8914.2604 9.7326l-.0781.0938-.0799.0903-.2465.276-7.1337 7.1337 6.1285 12.2569.0538.1216.1754.3993.0538.125.0486.1284c1.6734 4.4126-.1171 9.437-4.2743 11.7691l-.4097.217c-4.4477 2.2239-9.7928.6731-12.4011-3.4427l-.0712-.1128-.0642-.1146-.283-.5-.0625-.1233-3.2066-6.4114c-2.9145 2.903-7.6325 2.9033-10.5468 0l-3.2032 6.4114c-2.2974 4.5948-7.7833 6.5409-12.434 4.5035l-.4479-.2101c-4.74114-2.3711-6.66367-8.1366-4.29342-12.8784l6.06772-12.1372-.6285-.6285-.0972-.0954-.0903-.1007-.1458-.1615-.0903-.1007-.0851-.1042c-2.39319-2.9347-2.2307-7.26.507-9.9982l.2621-.2483c1.9308-1.7558 4.5537-2.3166 6.9289-1.6892zm27.5625 42.2396.335-.1875.0035-.0035c-.1092.0676-.2215.1324-.3385.191zm-18.9757-15.125-.2066-.0087c.1368.0131.2746.0131.4114 0zm-.8073-.1545c.0643.026.13.0481.1961.0677l-.1961-.0677c-.0641-.026-.1275-.0562-.1893-.0885zm1.7413-.0625c-.1059.0513-.2133.0973-.3247.1302l.1962-.0677c.0441-.0178.0855-.0416.1285-.0625zm-2.2865-.2604c.0561.0457.1143.0876.1736.1267l-.1736-.1267c-.0556-.0454-.1096-.0957-.1614-.1476zm2.7032-.0018c-.0324.0264-.0673.0488-.1007.073.0911-.066.1818-.1367.2638-.2188zm-17.9323-11.9079c-.1002.1212-.1843.2515-.2535.3871.099-.1937.2303-.3761.3923-.5382zm.4513-.4098c-.0553.0375-.109.0783-.1614.1216l.1614-.1216c.0551-.0373.1109-.0708.1685-.1024zm1.8507-.2621c.2462.0793.4813.204.691.375-.2618-.2134-.5632-.3548-.8767-.4254zm37.2587-5.7275c.2083.2524.3475.5417.4219.8438-.0896-.3649-.2741-.7114-.559-.9965zm-.4496-.4097c.0546.0371.1079.0771.1597.1198l-.1597-.1198c-.0552-.0374-.1125-.0725-.1702-.1041zm-2.0348-.1962c-.1793.0766-.3499.1795-.5069.3073.2094-.1705.4435-.2957.6892-.375zm.7327-.1684c-.1225.0061-.2444.0233-.3646.0504l.1892-.033c.0583-.0077.1167-.0144.1754-.0174zm-17.9254-5.9704c.0647.0798.1277.1622.1875.2482-.1196-.1719-.249-.3318-.3871-.4791zm-1.1198-.9671c.2498.1474.4873.3218.7066.5243l-.2256-.1944c-.2304-.1839-.4769-.34-.7344-.4687zm-4.3628-.0017c-.212.1249-.4135.2711-.6042.4358.19-.1641.3912-.3094.6025-.4341z" fill="#11833d" fill-rule="evenodd"/><g fill="#f2fff4"><path d="m52.8843 47.1564.175.4c.7669 2.0221-.1073 4.3369-2.0833 5.3249-1.9762.9881-4.3529.2982-5.5103-1.5291l-.2146-.3792-11.3416-22.6834c-.7862-1.5723-3.03-1.5723-3.8162 0l-11.3417 22.6834c-1.0538 2.1076-3.6173 2.9621-5.7249 1.9083s-2.9621-3.6173-1.9083-5.7249l17.0669-34.132c1.5723-3.14456 6.0598-3.14456 7.6322 0z" opacity=".5"/><path d="m51.9875 18.671c.8379-.6835 2.0731-.6353 2.8542.1459.781.7812.8292 2.0166.1458 2.8547l-.1458.1625-21.3281 21.3319c-.8343.8344-2.1931.8344-3.0274 0l-14.9281-14.9307-.1458-.1625c-.6835-.8381-.6353-2.0735.1458-2.8547.781-.7812 2.0163-.8294 2.8542-.1459l.1625.1459 11.9114 11.9135c.8343.8344 2.1931.8344 3.0274 0l18.3114-18.3147z"/></g></svg>