<svg fill="none" height="118" viewBox="0 0 375 118" width="375" xmlns="http://www.w3.org/2000/svg"><g clip-rule="evenodd" fill="#537a97" fill-rule="evenodd"><path d="m351.798 43.1035c1.02-.637 1.835-.2119 3.057-.2119 2.957 0 5.607 2.9716 4.282 5.4116-.407 2.9716-5.504 19.3156-3.567 21.1199 2.548 2.3346 15.39-17.1928 16.41-18.5721 1.427-1.9108 3.975 1.4858 2.649 3.502-5.707 8.7018-13.657 22.4979-22.729 18.9959-1.936-.7423-6.626-2.4412-6.626-10.6126 0-6.0486 3.16-17.6166 6.524-19.6328zm9.275-15.3885c1.835 0 3.059 1.2739 3.059 4.7759v.7435c0 2.6531-2.447 4.9878-4.893 4.9878-3.058 0-5.3-5.6248-5.3-5.7313 0-2.8651 5.402-4.7759 7.134-4.7759z"/><path d="m287.48 41.5808c2.119 0 5.19-.2083 5.19 1.4518.106 1.1407-.529 2.4884-1.27 4.3556-1.907 4.6656-2.966 9.7477-3.284 14.7245 3.284-5.3921 8.58-17.9394 14.087-17.9394.318 0 .741 0 1.059.1029 4.024 1.1407 6.249 1.1407 6.672 4.3556.531 4.2515.318 10.7855.849 15.8664 2.541-2.9037 8.367-16.8 13.345-16.8 3.601 0 8.262.5195 8.262 8.8153 0 4.2515-.636 10.6813-.636 13.1697 0 .9336.106 1.4519.318 1.4519 2.648 0 11.863-12.6514 18.324-22.8145 0 .2083.317.2083.317.2083.318 0 .213-.8307.53-.9336v.1029c.212 0 .635-.4141.848-.4141h.211c.318 0 .318-.2071.742-.4153 0 .2082.212.3112.212.3112 0 .1041-.107.1041-.107.1041h.107c.211 0 .318-.1041.423-.1041 0 .1041-.105.1041-.105.2082 0 .2071.105.4142.423.4142.106 0 .317-.1042.424-.1042-.424.8307-1.483 2.9038-2.013 3.3191.106-.3112.318-.6224.318-.9336-.424.5183-.635.8295-.635 1.0377 0 .103.105.2071.105.31.53 0 1.06-.9324 1.271-1.2436 0 0 .107 0 .107.103 0 .1041-.107.1041-.107.2082h.107c-.53 1.6589-1.06 2.1772-1.272 2.6955.212-.5183-6.99 12.8597-14.405 19.5995-2.33 2.0743-5.507 3.422-9.427 3.422-3.813 0-8.262-1.763-8.262-8.8141 0-3.6302.531-7.6734.531-9.2294v-.4154c-2.754 3.6303-7.203 15.4523-14.3 15.4523-6.037 0-7.413-4.8739-7.413-13.6892v-6.2216c-4.978 6.5328-8.898 22.5033-13.876 22.5033-5.084 0-8.473-5.1851-8.473-9.2294 0-5.7034 1.165-10.9926 2.648-17.4224.741-3.422 3.177-7.5693 8.155-7.5693zm62.068 12.9626c-.212.6212-.847 1.1407-1.165 1.7619 0 0 .106 0 .106.1041 0 .2071-.529.8295-.741 1.1407.53-.4142.741-.5183.953-1.2448 0-.31.424-.2071.424-.5183 0-.1029-.107-.1029-.107-.1029.425-.7266.425-.7266.53-1.1407zm2.436-2.9037c-.423.7253-.953 1.4518-.953 2.0731.106 0 .212-.2071.212-.2071.106 0 .106.1041.106.1041-.106.103-.212.4142-.212.4142.318-.3112 1.059-1.1407 1.059-1.9702.106 0 .106 0 .106-.1029v-.2083l-.953 1.6601c0-.1041.742-1.6601.635-1.763z"/><path d="m270.345 38.0794c1.064 0 1.703.3207 1.703.962-1.703 13.0345-.745 33.2293-5.324 47.3343-2.342 7.2652-9.369 22.6513-22.785 28.9563-.638.427-1.171.641-1.703.641-.106 0-.32 0-.425-.107l1.916-1.068c-.852 0-2.875 1.709-4.898 2.03.532-.108.639-.534.852-.534 0 0 .107.106.213.106-.106-.214 1.703-.641 1.703-1.283h-.106c-.851 0-1.597.856-2.449 1.069-.213.534-3.301 1.602-6.388 1.602-.426 0-.746 0-1.065-.106h-.852c-1.277 0-3.194-.213-4.365-1.282.639.107 1.384.107 2.023.107 12.564 0 20.23-13.89 23.53-24.7887 5.004-16.4556 6.921-33.7647 13.735-50.5409.959-2.2433 3.087-3.098 4.685-3.098zm.744-10.3644c1.491 0 3.301 1.2813 3.301 2.4579 0 1.4947-2.13 1.602-2.662 1.602-1.276 0-2.342-1.3887-2.342-2.4579 0-.1061.107-.3207.107-.4267.32-.8547.852-1.1753 1.596-1.1753z"/><path d="m238.568 39.7479c2.188-1.0709 5.939-.2139 8.128 1.0721.938.5355.52 1.0709.52 1.1785-.208.3215-.625.5355-1.041.4279 0 .643.416.5367.416 1.0721-.103.643-.208.7494-.208 1.5 0 .3215 0 .2139-.105 1.5-.103 6.7494 0 21.4266 1.146 23.8911 2.189 1.5 14.796-16.4987 16.88-19.9278.729-1.2848 2.084-3.3215 2.501-1.3924.104.4279.52.643.625 1.2861.208 1.2848.104 2.1418-.417 3.4278l-.417.9646c-.833.2139-.104.5354-.938 1.3924-.312.643-.938 1.1785-1.146 1.7139v-.2139c.105-.214.208-.4291.418-.643-.313 0-.105-.214 0-.4279-.105.2139-.313.3215-.418.4279 0 .1075-.208.5354-.208.2139l-.938 1.3936c-.833.857-.729 1.0709-1.667 2.2494l.105.1076c.312-.2139.416-.857.833-.857v.1064l-.104.1076c-.208.4291-.938 2.143-1.354 2.143 0-.214-.626.4279-.626.8569-.417.6431-.52.9646-.73 1.3925.105 0-.312.643-.416.5354-.104.3215-.52.7506-.73 1.0721 0 0-3.229 4.0709-3.646 4.2849-.417.2151-.833.3215-1.251.9645-1.041 1.2861-1.667 1.1785-3.229 1.9291-1.771.4279-1.98.2139-2.189.2139-2.709.9646-5.522-1.8215-6.46-4.3924-1.354-3.4291-1.354-11.4645-1.041-16.4999-.208.2151-.417.9645-.417 1.0721-1.563 5.357-6.877 15.4278-8.336 15.2127-.729.7506-.833 1.3936-1.562 1.8215-1.354.643-3.022.4291-4.377-.5355-1.563-1.0709-2.084-2.786-2.084-4.6063.418-6.643 3.022-12.7494 5.835-17.3569 2.085-3.214 4.689-6.7494 8.648-8.6785zm4.377 3.7506c-2.293 1.2849-5.523 6.1064-7.607 10.2848-2.084 4.0709-4.376 9.643-5.418 13.5.105.1063.208.1063.313-.1076 3.959-7.3924 6.877-13.2848 10.94-20.8923.105-.857 1.354-2.4634 1.772-2.7849zm16.983 19.3912c-.208.7506-.833 1.0721-1.041 1.3936.208.1063-.313.3215.208.643.208-.3215.312-.5367.625-.643-.313-.2152.208-.4291 0-.643l-.105.1063c.313-.4279.313-.3203.313-.8569zm.521-1.714c-.313.3215-.729.7506-1.042 1.5-.104-.2139-.104 0-.208 0 0-.1076-.104.1076-.104.1076.208.2139.208.3215.208.3215.104 0 .417-.7506.52-.7506l-.103.3215c.416-.2139.521-.5354.729-.8569.312-.7494.312-.3216 0-.6431zm-.208-1.3924s-.418.3215-.626.7494c.418-.4279.105-.1064-.104.4291.104-.3215-.834 1.286-1.25 1.9279h.104c0 .0268-.007.047-.017.0621l-.035.029.063-.0134c.287-.1347.693-.6943.728-1.0236l-.009-.125c.104.1075.208 0 .312 0 .208-.5355.313-.4291.313-.7494-.209-.1076.521-.6431.521-.7506.208-.3216 0-.5355 0-.5355z"/><path d="m223.437 11.548c.959.6412 4.156 5.8758 4.902 4.2727l.32-.106c0 1.0678-.32 6.3024-.959 6.3024-3.411 15.5989-5.435 34.722-10.337 56.516-1.919 7.9067-10.551 8.3334-14.814 4.8079-6.181-9.294-7.992-41.239-9.165-52.5626-.427-2.2443-.32-5.8758-1.385-7.2655-8.1 15.0637-10.231 36.7516-12.043 54.1657-.426 1.8163-.746 4.38-1.811 5.1285-.746 0-1.173-1.2825-1.492-1.6031-.534-.64-.534-1.7091-.854-2.0297-.425-.6412-.958-1.6018-1.385-2.0297l-.319.1073-.533-.7485c-.32 0-.745.2146-1.065-.5339-.32.1072-.747-.3206-1.599-.8546h-.426c-.32-.6412-.32-1.4958-.747-2.0297-2.024-19.551 1.812-42.8408 12.789-55.7687 9.271-8.97339 16.305 3.74 20.355 10.5764 0 .4279.533 1.0691.533 1.0691 2.984 4.9139 3.836 28.845 5.435 36.6444.426.7485.426 1.8164.853 2.3503.425-.7473.213-1.2824.639-1.6018 3.837-21.3674 6.075-38.462 11.403-52.8845 0-2.4564 1.172-1.7091 1.385-1.9224 0 .6412.32 0 .32 0zm-17.264 41.2377-.214.4279.107-.1073c.107 0 .107 0 .107.1073.106.1073-.107.1073-.107.1073.107.2133.107.4266.107.7473v.3206c0-.1073-.107-.1073-.107-.2134v.4267c0 .6412.107 1.4958.32 1.7091v-.3194c.106.2133.106.3194.106.4267.027.0268.047.0602.06.097l.003.03zm-.639-4.38c.105.7485 0 1.3885.212 1.3885-.107 0-.107.3206 0 .4279-.107.1073-.107.1073-.107.2133 0 .1073.107.3206.107.6412v.9619c0 .1072 0 .2133.107.3206v-.534c.106.3206 0 .9606.106.9606 0-.4266.107-.8545 0-1.3885 0-1.0678-.213-2.3503-.425-2.9915zm-14.921-28.311c-.958.3206-1.705 2.5636-2.45 3.6327l.104-.1627v-.1131c-.003-.0299-.013-.0398-.043-.0431l-.061-.0017v.3206c-.107.534-.427.7473-.64 1.0679.106-.3206.213-.6412.213-.7485l-.107-.106c-.106.7472-.533 1.1751-.746 1.8163 0 .1924 0 .3848-.045.5539l-.046.1136.078-.1154-.145.2557c-.103.2003-.2.4272-.276.6275l-.098.2738h.213c-.213.1073-.64.534-.64 1.0679 0 .1073.107.2146.107.2146l-.213.64c-.534 1.2824-1.279 2.5648-1.279 3.5266h.107c0 .1061-.107.2134-.107.3194l-.098.0258c-.392.2024-.754 1.5604-.754 2.6451 0 0 0 .2146.319.2146-.639.3206-.639.7473-.639 1.3885 0 .1073 0 .2133.106.2133.533-1.7091 1.811-4.2727 1.811-5.7685-.212.4267-.212.3206-.425.4267 0-.3206.106-.4267.213-.64.107 0 .107 0 .212-.1073l-.105-.1073c0-.106 0-.106.105-.106.214 0 .214.4266.214.5339.533-1.3897 1.173-2.3503 1.705-3.6327.64-1.1752.853-1.8164 1.173-2.5637l-.219.5118c-.819 1.8837-1.779 3.7525-1.486 2.4798.319-.6413.745-1.3898.852-1.9237.106-.3206.426-1.0679.64-1.0679 0-.1073-.107-.2145-.107-.3206 0-.4279.32-.2133.745-1.1751 0-.3206-.106 0-.106-.3206.32-.2134.64-1.2825.853-1.4958l-.107.4267c.107 0 .214-.2134.214-.4267 0 0 0-.1073-.107-.2133.32-.1073.425-.3207.425-.3207 0 .2134-.105.2134-.105.3207.319-.3207.532-.7485.532-1.1752 0-.1073-.107-.2146-.107-.2146 0-.4266.32-.4266.32-.7472zm.214 2.5636c-.747 1.1752-1.279 2.7782-1.919 4.0594v-.2133s-.107-.1061-.107-.2133c0 .4266-.425.7472-.638.8545h.106c.107 0 .214.1073.214.1073h.105v.106c0 .1073.107.1073.107.2146-.319 0-1.066 2.777-1.492 2.8842-.107.3207-.107.9619-.532 1.1752.212-.2133.425-.8545.425-1.0691 0 .1073-.106.2146-.106.2146-.107 0-.107 0-.107-.1073l-.212.4279s.105.106.105.2133-.212.3206-.425.3206c0 .3206-.107.4267-.32.7473 0 .1073.106.3206.106.4279 0 0 0 .1072-.106.1072v-.3206c-.213.3206-.213.3206-.213.64.213 0 .213 0 .533-.3194l-1.067 3.5255c.214 0 .747-2.0309.853-2.2443 0 0 .107.0001.107.1073.107-.1072.213-.1073.213-.1073 0 .8546-.639 1.3898-.639 2.3504.958-2.2431 1.598-4.2728 2.665-7.2643l-.214.1061s0-.1061-.106-.1061c0-.1073 0-.5339.32-.5339 0 .106-.107.2133-.107.2133.107 0 .212 0 .212-.1073v-.106h.107s-.107.106-.107.2133c.213 0 .107-.8546.747-1.3885h-.107c.32-.8558 1.172-1.8164 1.385-2.7782h-.213c0-.1073 0-.1073-.107-.1073.32-.4266.32-.9606.853-1.2812 0-.3206 0-.5351-.319-.7485zm-5.329 4.9152c-.214.5339-.746 1.8152-.852 1.8152 0 .4278-.107.8557-.107 1.1751 0 0 1.065-2.0297 1.172-2.8842h-.107zm1.385 0c0 .4267-.532 2.1358-.532 1.8152-.32 0-.533.2145-.533.4278v-.3206c.106-.3206.639-.9618 1.065-1.9224zm1.28-5.6625s0 .4267-.107.4267v-.106c-.64.9606-1.173 2.5636-1.173 2.4563 0 .1073-.107.2146-.107.4279 0 .1073.32-.1073.214-.4279.533-.6412 1.279-1.7091 1.279-2.5636 0-.1073 0-.1073-.106-.2134z"/><path d="m139.837 78.308c0 1.2637.974 2.4216 1.514 2.5273 0-.5261.109-1.2637.109-2 .432.9466.54 1.8943.649 1.7886 0-.3147.216-.6306.323-1.0523 2.704-18.9486 4.867-33.2654 7.03-53.2662 1.298-.2115 7.354-.5262 8.976-.5262-.108-.3159-.433-.4216-.433-.4216.649 0 1.514-1.0522 2.056-1.0522-2.272-1.7898-6.597-2.0012-10.058-2.0012.216-2.9465.973-6.1056.973-10.8418 0-1.2637 0-2.4216-.216-3.36933.216-.42041.216-.73632.216-.94773 0-2.10446-4.867-2.52608-6.705-2.52608-1.946 0-4.109.52612-4.866 2.73749-1.189 3.68405-1.947 11.89525-2.703 14.63275-2.164.1045-8.653.2102-8.653.9465 0 2.4216 4.326 3.2637 7.246 3.2637h.757c-1.622 13.7907-2.379 25.0541-3.461 39.2653 0 .7375-.107 1.5796-.107 2.3171 0 2.4204.432 10.6316 1.081 10.6316.108 0 0-1.8942.324-1.8942.433 0 .325 1.684.974 1.8942 0-.7363 0-1.2636.324-1.684 0 0 .325 3.0522.757 3.0522 0 .1057.108-2.4204.324-2.2102s.434 3.2636.974 3.2636c-.325-.842-.217-1.4739-.217-2.4216.217.2102.973 2.3159 1.298 2.2102 0-.2102.109-.4204.109-.6306.107.2102.431.4204.431.3159l-.215-.7376c.649 0 .324.6319 1.08 1.0523-.107-.6306-.215-.9465-.215-1.6841 0-.4204.215-.5261.324-.6318z"/><path d="m108.233 39.7479c2.188-1.0709 5.939-.2139 8.127 1.0721.937.5355.521 1.0709.521 1.1785-.208.3215-.625.5355-1.042.4279 0 .643.417.5367.417 1.0721-.105.643-.208.7494-.208 1.5 0 .3215 0 .2139-.105 1.5-.104 6.7494 0 21.4266 1.146 23.8911 2.189 1.5 14.796-16.4987 16.88-19.9278.729-1.2848 2.083-3.3215 2.5-1.3924.105.4279.521.643.626 1.2861.208 1.2848.103 2.1418-.418 3.4278l-.416.9646c-.833.2139-.104.5354-.938 1.3924-.312.643-.938 1.1785-1.146 1.7139v-.2139c.105-.214.208-.4291.416-.643-.311 0-.103-.214 0-.4279-.103.2139-.311.3215-.416.4279 0 .1075-.208.5354-.208.2139l-.938 1.3936c-.833.857-.73 1.0709-1.667 2.2494l.104.1076c.312-.2139.417-.857.833-.857v.1064l-.103.1076c-.21.4291-.938 2.143-1.356 2.143 0-.214-.624.4279-.624.8569-.417.6431-.522.9646-.73 1.3925.105 0-.312.643-.416.5354-.104.3215-.522.7506-.73 1.0721 0 0-3.23 4.0709-3.646 4.2849-.418.2151-.834.3215-1.251.9645-1.041 1.2861-1.667 1.1785-3.23 1.9291-1.772.4279-1.98.2139-2.188.2139-2.709.9646-5.522-1.8215-6.46-4.3924-1.354-3.4291-1.354-11.4645-1.042-16.4999-.208.2151-.417.9645-.417 1.0721-1.562 5.357-6.877 15.4278-8.335 15.2127-.729.7506-.834 1.3936-1.563 1.8215-1.3549.643-3.0217.4291-4.3759-.5355-1.5634-1.0709-2.0841-2.786-2.0841-4.6063.4173-6.643 3.0222-12.7494 5.8351-17.3569 2.0839-3.214 4.6889-6.7494 8.6479-8.6785zm4.376 3.7506c-2.292 1.2849-5.522 6.1064-7.606 10.2848-2.084 4.0709-4.376 9.643-5.4179 13.5.1034.1063.2081.1063.3127-.1076 3.9592-7.3924 6.8762-13.2848 10.9402-20.8923.103-.857 1.354-2.4634 1.771-2.7849zm16.984 19.3912c-.208.7506-.834 1.0721-1.043 1.3936.209.1063-.312.3215.209.643.209-.3215.313-.5367.626-.643-.313-.2152.208-.4291 0-.643l-.105.1063c.313-.4279.313-.3203.313-.8569zm.521-1.714c-.313.3215-.729.7506-1.042 1.5-.104-.2139-.105 0-.209 0 0-.1076-.104.1076-.104.1076.209.2139.209.3215.209.3215.104 0 .417-.7506.52-.7506l-.103.3215c.416-.2139.521-.5354.729-.8569.312-.7494.312-.3216 0-.6431zm-.208-1.3924s-.418.3215-.626.7494c.416-.4279.105-.1064-.104.4291.104-.3215-.834 1.286-1.25 1.9279h.103c0 .0268-.006.047-.016.0621l-.035.029.062-.0134c.287-.1347.693-.6943.728-1.0236l-.009-.125c.104.1075.209 0 .313 0 .208-.5355.313-.4291.313-.7494-.209-.1076.521-.6431.521-.7506.208-.3216 0-.5355 0-.5355z"/><path d="m85.0628 2.68584c.6255-1.791871 5.1064-3.161634 7.0876-2.529066 4.5855-.844226 2.9171 4.215116 1.4591 9.064006-4.274 13.70122-7.6085 27.82342-10.3186 42.57932.2093.2104.7301.7372.7301 1.4756 7.5038-1.6873 15.1111-4.6385 21.781-8.5373.313-.3163 1.251-.5267 1.147.2105h.417c-.417.3162-.313.5267-.417.6325.104 0 .104-.1058.417-.1058 0 .1058 0 0 .104 0-.104.2117-.834 1.8977-.938 1.7919-2.605 1.7919-1.251.6325-3.856 2.5303.938-.2117 2.293-1.4756 2.293-.9489-.104.2105-.521.3163-.626.6326.73-.3163 2.398-2.1082 1.356-.4221-.73.5267-1.356.843-1.981 1.0534h-.208l-.104.2117c-.209.1046-.625.2104-.938.7372-4.8985 3.057-3.8568 1.686-4.8985 2.7407.9383-.5267 2.9185-.7384 4.4805-2.0023.21-.2117-.52.6313-.833.9476-3.544 1.8977-10.5258 4.4268-14.5904 5.9024 3.96 9.5907 5.6272 29.3002 2.7089 38.7851-.1034 0-.4162 2.1082-.5208 2.3186-.3128-.2104-1.98 7.5882-5.003 7.2732-.6243-.106-1.0417.948-1.7707.211-.6255.421.1035 1.264-2.7101.948-.8337-.105-2.7102.738-3.3345 2.003-4.7949 2.423-8.234-2.214-10.5268-6.008-3.8565-13.7017.9383-36.3611 3.5438-50.9053 3.96-21.1851 8.7537-39.1014 12.4021-47.7445.3128-.84302 1.5626-3.16164 3.6473-2.84536zm-15.1123 97.80616c.3128.949.2093 1.37.3128 2.108h-.2081c.4174.421.2081.421.1046.527 0 .105-.2093.105-.1046.421l.1046.106s-.1047.316.2081.527c-.1046-.211.2081-.317.3128-.317-.1047-.316-.1047-.21 0-.21 0 0 .3127-.106.3127.316l-.1046-.106c.2081.212.2081.528.2081.739-.3116 0-.2081-.317-.4162-.633.1046.422.1046.843.7289 1.054 0-.105-.3127-.211 0-.421-.5208-.317-.2081-.949-.5208-1.476 0 0 .3127-.422.3127 0-.3127 0-.1046.105-.1046.105s0 .106.3127.106c0-.106 0-.106.1047-.106v.106l.1046.105c-.1046-.211-.1046-.211.1035-.211.1046.106.1046.422.2093.528-.1047-.317-.1047-.528-.5221-1.371h-.1034c.2081-.211.1034 0 .3127-.105-.1046-.212-.3127-.949-.6255-.632l.1035.316c.3127.104.1046.104 0 .316.6255.737 0 .316.1046.421-.3127-.105-.3127 0-.3127 0-.4162-.737-.5209-1.58-.9383-2.213zm11.1523-36.5721h-.3128l.1046.1058c-1.6684 8.7477-3.1275 16.6524-3.5438 26.0327-.3127 3.6884-.1046 7.6931.729 11.8036 5.7319-7.9047 5.6285-27.613 3.023-37.9421zm-10.8395 35.2025h-.1035c0 .2105.1035.2105-.1046.3151.2081.528.3127 1.6875.4174 1.8975 0-.21.3127-.21.2081-.422.1046-.21-.4174-1.5801-.4174-1.7906zm17.0922-23.6094c0 .1058-.1034.3163-.1034.3163-.1047 0 .2081.3162.2081.3162-.1047.1059-.1047.3163-.1047.3163l-.1034.2105v.1058s0 .1058.2081.1058c0-.1058.1034-.4221.1034-.6325.3128.2104 0 .2104.2093.4209-.3127.2116 0 .4221-.1046.5279-.1047 0-.3128 0-.1047.1047.4174 0 .4174.4221.2093-.3163.2081 0 .1035.1058.2082 0 0-.1047-.1047-.3163.4174-.3163 0-.1046-.2093-.3151-.1047-.4209-.1046.1058-.3127.2104-.3127.2104-.1047-.2104.2081-.2104-.2082-.5267.1035.4221.1035.4221-.2093.2104l-.1034-.3162s.1034-.2105-.1047-.3163zm.3128-2.8454c-.2081.3163.1046 1.0547-.2081 1.1593 0-.2104 0-.843-.2081-.843l-.2093.5267c.2093.3163.6255 1.1594.3127 1.1594.3128.5279 0 .4221.3128.843v-.3151l.2081.4209c0-.843.1047-1.686.1047-2.6349-.3128-.1058-.0001 0-.3128-.3163z"/><path d="m54.5419 43.1035c1.0188-.637 1.8341-.2119 3.0576-.2119 2.9553 0 5.6059 2.9716 4.2812 5.4116-.4082 2.9716-5.5047 19.3156-3.5682 21.1199 2.5482 2.3346 15.3918-17.1928 16.4106-18.5721 1.4271-1.9108 3.9754 1.4858 2.6506 3.502-5.7082 8.7018-13.6588 22.4979-22.7306 18.9959-1.9365-.7423-6.6248-2.4412-6.6248-10.6126 0-6.0486 3.1589-17.6166 6.5236-19.6328zm9.2753-15.3885c1.8341 0 3.0577 1.2739 3.0577 4.7759v.7435c0 2.6531-2.4459 4.9878-4.893 4.9878-3.0577 0-5.3-5.6248-5.3-5.7313 0-2.8651 5.4024-4.7759 7.1353-4.7759z"/><path d="m13.7903 9.2384c1.5988 0 3.3058.21021 4.9045.21021.5329 0 .96 0 1.4929-.1045.64 0 1.28.1045 2.0258.2102.1071-.2102.32-.2102.5329-.2102 1.4929.31591 1.1729 1.15789 3.5199 2.31589 5.2245.5261 14.3947 4.1056 14.1817 12.3169-.107 6.1056-6.6115 11.6839-13.4359 13.685 3.9458 6.6317 7.3574 14.843 11.7289 22.1065 3.5187 5.9999 6.8244 12.3169 9.2773 18.8429-.1071 0-.2129-.1045-.32-.1045-.2129 0-.5329 0-.4271.1045.32.3159.32.4216.4271.6319-.1071 0-.2129.1057-.2129.1057 0-.1057-.1071-.4217-.5329-.5274-.2142 0-.2142.1057-.2142.2115-.1058-.1058-.32-.316-.7458-.316 0 0 0 .1045-.1071.1045 0 0 0-.1045-.1058-.1045v.8421c-.2142-.3159-.64-.8421-.96-.8421 0 .2102 0 .5262.2129.7364-.2129 0-.32.1057-.427.1057-.1059 0-.2129-.1057-.6388-.3159 0 .2102.4259.842.4259 1.0522-.1059-.1045-.1059-.1045-.213-.1045 0 .1045.32.3159.32.5261l-.107.1057-.32-.2114v.2114c-.213 0-.4259-.1057-.64-.1057-.1059 0-.1059 0-.1059.1057-.32-.4216-.5329-.6318-.8529-.8432 0 0 .1059.3159.32.6318-.32 0-.2141.3159-.2141.5261-.2129 0-.5329-.3147-.5329-.4204l-.0023.0001.019.222c.0201.1414.0535.2762.0736.4441l.0167.2815c-.107-.2114-.107-.4216-.3199-.5273v.1057c-.64 0-.8529-.7363-1.28-1.0522v.2102c0 .3159.2129.7363.32.842l-.8529-.4204c.1071.2102.1071.3147.1071.3147 0 .4216-.64.3159-.8529.5273-1.4929-.5273-2.1329-1.3693-3.0929-2.6317v-.2115l-.2129-.1045c-4.6916-9.4749-9.3843-20.1065-15.4617-29.4757-.32 2.4216-3.0916 33.4757-3.9457 33.4757-.32-.2102-.32-.3159-.32-.3159-.1059 0-.2129.1057-.2129.2102 0-.1045-.1059-.2102-.1059-.2102s-.1071 0-.2141.1057c-.1059-.2102-.4259-.316-.7459-.316-.6399 0-1.5999.316-2.3457.5262.1058-.3159-.4271-.2102-.4271-.4204-.1059 0-.32-.1057-.32.1045-.1058.1057-.1058.2102-.1058.3159v.1057s-.5342-.3159-.4271-.7376c-.1071 0-.1071.2115-.1071.2115-.1058-.2114 0-.316-.3187-.316v.316c-.1071 0 0-.2115-.1071-.2115s-.85292.9478-.7471.9478c0 0-.21289-.1057-.21289-.2102 0-.1057.10707-.2114.21289-.4216v-.1045c-.53288 0-.21289 0-.53288.4204-.10585-.1057-.10585-.1057-.10585-.2102.10585-.1057.10585-.1057.10585-.2102-.10585 0-.21292.2102-.31998.2102 0 0 .10706-.2102-.10586-.2102.10585.1045 0 .4204 0 .7363-.21413 0-.21413.2102-.31999.2102v-.842l-.31999.1057v-.2102c-.21292 0-.42705.2102-.53291.2102 0 0-.10707 0 0-.1057l-.00401.0004-.15386.1241c-.12801.1213-.17929.2278-.2692.2734l-.10705.0237s-.10586 0-.21293-.1057c0 0-.53291.1057-.8529.1057-.21292 0-.31999-.1057-.31999-.1057-.42584.1057-1.49288.3159-1.49288.5261h-.10585c0-.1045.10585-.3159.10585-.4204-.53291 0-.8529.6318-1.49287.842-.85291 0-.85291 1.7898-.85291 1.7898-2.2387067 0-2.2387068-2.5273-2.1328547-4.7375.4270587-22.6326 5.1186147-43.0551 6.2915047-66.9513-.31999 0-.42584-.0001-.63998-.316 0 0 .21414 0 .31999-.2114-.21292 0-.53291.1057-.8529.1057-.10706 0-.31999 0-.53291-.1057 0-.1045.31999-.3159.42585-.3159 0-.1045-.10586-.1045-.10586-.1045.63998-1.8954 3.51867-.842 4.05158-2.2114 1.38579-1.15789 3.09279-1.3681 4.79859-1.3681zm-9.9172 69.4786-.10548.0015c-.1725.0073-.32037.0512-.32037.3145h.21292c0 .2102 0 .2102-.10706.2102.42705.3159-.21293.6318 0 .842.21413-.2102.21413 0 .53412-.2102 0-.2102.21292-.4216.21292-.842-.21292-.1058-.42705 0-.42705 0 .10706-.1058.10706-.1058 0-.316zm.21413-4.4215c-.53412.3159-.21413.6318-.31999 1.2636.10586.1045-.10707.3159-.10707.5262 0 0 .10707.4204.31999.5261 0-.4216.21292-.5261 0-.9478.21292-.4204.21292-.842.10707-1.3681zm-.53412-2.9477c-.42585 0-.31878.2102-.53291.3159-.21293.7363-.21293 1.5796-.10586 2.2102.21292-.6306.31999-1.158.42584-1.7886.21293 0 .21293 0 .21293-.2114-.10586-.2102.10706-.5261 0-.5261zm.63998-5.0534c-.21293.6319-.21293 1.7898-.10586 2.3159 0 .6318-.63998 2.2114.21292 2.9477.21292-.4204.21292-.6306.63998-.9465v.1045c0-.2102.31999-.4204.31999-.7363l-.31999-.2114c0-.4205.31999-.7364 0-.8421-.10707.3159 0 .8421-.21413 1.0535-.10586-1.0535.10706-1.5796 0-2.4216v-.1057c-.21293 0-.21293.1057-.53291.1057.10706-.3159.42705-.842 0-1.2637zm20.15331-49.4766c-1.0659 5.3693-1.6 10.6329-2.2388 16.5271 5.9703-1.8943 10.449-5.9999 10.5561-10.5272.107-3.9999-5.2245-5.8941-8.3173-5.9999z"/></g></svg>