<svg fill="none" height="24" viewBox="0 0 133 24" width="133" xmlns="http://www.w3.org/2000/svg"><g fill="#f2fff4"><path d="m23.7472 20.5259.0984.225c.4314 1.1374-.0604 2.4395-1.1718 2.9952-1.1117.5558-2.4486.1678-3.0996-.8601l-.1207-.2133-6.3797-12.7594c-.4422-.88444-1.7043-.88444-2.1466.00001l-6.37966 12.75939c-.59276 1.1855-2.03473 1.6662-3.22025 1.0734-1.185529-.5927-1.666183-2.0347-1.07342-3.2202l9.60009-19.19928c.88444-1.768826 3.40864-1.768828 4.29314 0z" opacity=".5"/><path d="m23.2427 4.50284c.4713-.38449 1.1662-.35737 1.6055.08205s.4664 1.13435.082 1.60576l-.082.09143-11.9971 11.99922c-.4693.4693-1.2336.4693-1.7029 0l-8.39701-8.39856-.08204-.09143c-.38442-.47141-.35731-1.16634.08204-1.60576.43934-.43942 1.13414-.46654 1.60547-.08205l.09141.08205 6.70013 6.70135c.4693.4694 1.2336.4694 1.7029 0l10.3002-10.30201z"/><path d="m130.644 20.7695v-17.05503h2.356v17.05503z"/><path d="m122.801 21c-1.235 0-2.333-.2612-3.293-.7836-.946-.5378-1.693-1.2676-2.242-2.1895-.533-.9219-.8-1.9821-.8-3.1805 0-.9527.152-1.8208.457-2.6044s.724-1.4597 1.258-2.0282c.549-.58384 1.197-1.02942 1.944-1.33672.762-.32266 1.586-.48399 2.47-.48399.778 0 1.502.15364 2.173.46094.671.29194 1.25.69911 1.738 1.22147.503.5225.884 1.1447 1.143 1.8669.275.7068.405 1.4827.389 2.3278l-.023 1.014h-9.811l-.526-1.8898h8.302l-.343.3918v-.5532c-.046-.507-.214-.9603-.503-1.3598-.29-.3994-.656-.7144-1.098-.9449s-.923-.3457-1.441-.3457c-.823 0-1.517.1613-2.081.484-.564.3073-.991.7682-1.281 1.3828-.29.5993-.434 1.3445-.434 2.2356 0 .8451.175 1.5826.526 2.2126.35.6146.846 1.0909 1.486 1.4289.641.338 1.38.507 2.219.507.594 0 1.143-.0998 1.646-.2996.519-.1997 1.075-.5608 1.67-1.0832l1.189 1.6825c-.366.3687-.816.6914-1.349.968-.519.2765-1.075.4993-1.67.6683-.579.1537-1.151.2305-1.715.2305z"/><path d="m109.104 21c-.518 0-1.036-.0845-1.555-.2535-.503-.169-.968-.3918-1.395-.6684-.412-.2919-.762-.6069-1.052-.9449-.275-.3534-.457-.7068-.549-1.0602l.595-.3227v2.9501h-2.356v-16.98593h2.356v7.72083l-.366-.2074c.076-.3534.244-.6914.503-1.0141.259-.338.587-.63762.983-.89882.412-.27657.854-.49168 1.327-.64533.473-.16901.953-.25352 1.441-.25352 1.082 0 2.043.26889 2.881.80666.839.53777 1.502 1.28301 1.99 2.23561.488.9372.732 2.0128.732 3.2266s-.244 2.2971-.732 3.2497c-.472.9526-1.128 1.7055-1.967 2.2586-.838.5378-1.784.8067-2.836.8067zm-.388-2.1665c.701 0 1.326-.1767 1.875-.53.549-.3688.983-.8605 1.304-1.4751.32-.6299.48-1.3444.48-2.1434 0-.7836-.16-1.4827-.48-2.0973-.305-.63-.732-1.1216-1.281-1.475s-1.182-.5301-1.898-.5301c-.717 0-1.35.1767-1.899.5301s-.983.845-1.303 1.475c-.321.6146-.481 1.3137-.481 2.0973 0 .799.16 1.5135.481 2.1434.32.6146.754 1.1063 1.303 1.4751.549.3533 1.182.53 1.899.53z"/><path d="m96.8154 20.7695v-12.09985h2.3557v12.09985zm1.1435-14.77334c-.5031 0-.8919-.1306-1.1664-.39181-.2744-.2612-.4116-.62996-.4116-1.10627 0-.44558.1372-.80666.4116-1.08323.2897-.27657.6785-.41485 1.1664-.41485.5032 0 .892.1306 1.1664.39181.2745.2612.4117.62996.4117 1.10627 0 .44558-.1448.80666-.4345 1.08323-.2745.27656-.6557.41485-1.1436.41485z"/><path d="m89.4849 21c-1.0064 0-1.9136-.1767-2.7217-.5301s-1.4789-.8758-2.0126-1.5672l1.601-1.3829c.4574.5378.9529.9296 1.4866 1.1755.5489.2304 1.1664.3457 1.8525.3457.2744 0 .526-.0308.7547-.0922.244-.0768.4498-.1844.6175-.3227.183-.1383.3202-.2996.4117-.484.0915-.1997.1372-.4148.1372-.6453 0-.3995-.1448-.7222-.4345-.968-.1525-.1075-.3964-.2228-.7319-.3457-.3202-.1383-.7395-.2766-1.2579-.4149-.8843-.2304-1.6085-.4916-2.1727-.7836-.5641-.2919-.9987-.6222-1.3036-.991-.2287-.2919-.3964-.6069-.5032-.9449-.1067-.3534-.1601-.7376-.1601-1.1524 0-.5071.1068-.968.3202-1.3829.2287-.4302.5337-.79893.9149-1.10623.3964-.32266.8538-.5685 1.3722-.73752.5336-.16901 1.0978-.25352 1.6924-.25352.5642 0 1.1207.07683 1.6696.23048.5641.15365 1.0825.37644 1.5552.66837s.8691.63765 1.1893 1.03712l-1.3494 1.4981c-.2897-.2919-.6099-.5455-.9606-.7606-.3354-.2304-.6785-.4071-1.0291-.5301-.3507-.1229-.6709-.1843-.9606-.1843-.3202 0-.6099.0307-.8691.0921-.2592.0615-.4803.1537-.6633.2766-.1677.1229-.2973.2766-.3888.461-.0914.1843-.1372.3918-.1372.6222.0153.1998.061.3918.1372.5762.0915.169.2135.315.366.4379.1677.1229.4193.2536.7547.3918.3354.1383.7624.2689 1.2808.3918.7623.1998 1.3875.4226 1.8754.6684.5031.2305.8996.4994 1.1892.8067.305.2919.5185.6299.6404 1.0141.122.3841.183.8143.183 1.2906 0 .6914-.1982 1.3137-.5946 1.8668-.3812.5378-.8996.9604-1.5553 1.2677-.6556.3072-1.3874.4609-2.1955.4609z"/><path d="m77.6851 21c-1.2351 0-2.3329-.2612-3.2934-.7836-.9454-.5378-1.6925-1.2676-2.2414-2.1895-.5336-.9219-.8004-1.9821-.8004-3.1805 0-.9527.1524-1.8208.4574-2.6044.3049-.7836.7242-1.4597 1.2579-2.0282.5489-.58384 1.1969-1.02942 1.944-1.33672.7623-.32266 1.5857-.48399 2.47-.48399.7776 0 1.5019.15364 2.1727.46094.6709.29194 1.2503.69911 1.7382 1.22147.5032.5225.8843 1.1447 1.1435 1.8669.2745.7068.4041 1.4827.3888 2.3278l-.0228 1.014h-9.8116l-.526-1.8898h8.3021l-.3431.3918v-.5532c-.0457-.507-.2134-.9603-.5031-1.3598-.2897-.3994-.6557-.7144-1.0978-.9449-.4422-.2305-.9225-.3457-1.4409-.3457-.8233 0-1.5171.1613-2.0812.484-.5642.3073-.9911.7682-1.2808 1.3828-.2897.5993-.4345 1.3445-.4345 2.2356 0 .8451.1753 1.5826.526 2.2126.3507.6146.8462 1.0909 1.4866 1.4289s1.3799.507 2.2185.507c.5946 0 1.1435-.0998 1.6467-.2996.5184-.1997 1.0749-.5608 1.6695-1.0832l1.1893 1.6825c-.3659.3687-.8157.6914-1.3494.968-.5184.2765-1.0749.4993-1.6695.6683-.5794.1537-1.1512.2305-1.7153.2305z"/><path d="m65.14 21c-1.0063 0-1.9135-.1767-2.7216-.5301s-1.479-.8758-2.0126-1.5672l1.6009-1.3829c.4574.5378.953.9296 1.4866 1.1755.5489.2304 1.1664.3457 1.8525.3457.2745 0 .5261-.0308.7548-.0922.2439-.0768.4498-.1844.6175-.3227.183-.1383.3202-.2996.4117-.484.0914-.1997.1372-.4148.1372-.6453 0-.3995-.1449-.7222-.4346-.968-.1524-.1075-.3964-.2228-.7318-.3457-.3202-.1383-.7395-.2766-1.2579-.4149-.8843-.2304-1.6086-.4916-2.1727-.7836-.5642-.2919-.9987-.6222-1.3037-.991-.2287-.2919-.3964-.6069-.5031-.9449-.1068-.3534-.1601-.7376-.1601-1.1524 0-.5071.1067-.968.3202-1.3829.2287-.4302.5336-.79893.9148-1.10623.3964-.32266.8538-.5685 1.3722-.73752.5337-.16901 1.0978-.25352 1.6925-.25352.5641 0 1.1206.07683 1.6695.23048.5642.15365 1.0826.37644 1.5553.66837.4726.29193.869.63765 1.1892 1.03712l-1.3493 1.4981c-.2897-.2919-.6099-.5455-.9606-.7606-.3354-.2304-.6785-.4071-1.0292-.5301-.3507-.1229-.6709-.1843-.9606-.1843-.3202 0-.6099.0307-.8691.0921-.2592.0615-.4802.1537-.6632.2766-.1677.1229-.2973.2766-.3888.461-.0915.1843-.1372.3918-.1372.6222.0152.1998.061.3918.1372.5762.0915.169.2135.315.3659.4379.1677.1229.4193.2536.7548.3918.3354.1383.7623.2689 1.2807.3918.7624.1998 1.3875.4226 1.8754.6684.5032.2305.8996.4994 1.1893.8067.3049.2919.5184.6299.6404 1.0141.122.3841.1829.8143.1829 1.2906 0 .6914-.1982 1.3137-.5946 1.8668-.3812.5378-.8996.9604-1.5552 1.2677-.6556.3072-1.3875.4609-2.1956.4609z"/><path d="m50.4002 16.9898-.1143-2.5814 5.7405-5.73875h3.179zm-2.1498 3.7797v-17.05503h2.3557v17.05503zm8.0962 0-4.5284-5.3239 1.6696-1.5442 5.8777 6.8681z"/><path d="m38.3975 21c-.9911 0-1.8983-.2766-2.7216-.8297-.8081-.5531-1.4561-1.306-1.944-2.2586-.4879-.9527-.7319-2.0282-.7319-3.2267 0-1.2138.244-2.2894.7319-3.2266.5031-.9526 1.174-1.69784 2.0126-2.23561.8538-.53777 1.8068-.80666 2.8588-.80666.6252 0 1.1969.09219 1.7153.27657s.9682.44558 1.3494.78361c.3964.32267.7166.69909.9606 1.12929.2592.4303.4193.8912.4803 1.3829l-.5261-.1844v-3.13445h2.3786v12.09985h-2.3786v-2.8809l.5489-.1613c-.0914.4148-.282.822-.5717 1.2215-.2745.3841-.6328.7298-1.075 1.0371-.4269.3073-.9072.5532-1.4408.7375-.5184.1844-1.0673.2766-1.6467.2766zm.6175-2.1895c.7166 0 1.3494-.1767 1.8983-.5301s.9758-.8374 1.2807-1.452c.3202-.6299.4803-1.3444.4803-2.1434 0-.7836-.1601-1.4827-.4803-2.0973-.3049-.6146-.7318-1.0986-1.2807-1.452s-1.1817-.5301-1.8983-.5301c-.7014 0-1.3265.1767-1.8754.5301-.5336.3534-.9606.8374-1.2808 1.452-.3049.6146-.4574 1.3137-.4574 2.0973 0 .799.1525 1.5135.4574 2.1434.3202.6146.7472 1.0986 1.2808 1.452.5489.3534 1.174.5301 1.8754.5301z"/></g></svg>