<svg fill="none" height="32" viewBox="0 0 137 32" width="137" xmlns="http://www.w3.org/2000/svg"><g fill="#f1f2f3"><path d="m137 27.0769v-22.15382-3.69231c0-.326421-.132-.639472-.366-.870286-.235-.230814-.552-.360484-.884-.360484h-3.75c-1.326 0-2.598.51868-3.536 1.44194-.937.92325-1.464 2.17546-1.464 3.48114v25.84612c0 .3264.132.6395.366.8703.235.2308.552.3605.884.3605h3.75c1.326 0 2.598-.5187 3.536-1.4419.937-.9233 1.464-2.1755 1.464-3.4812z"/><path d="m90.8823 27.0769v-22.15382-3.69231c0-.326421-.1301-.639472-.3618-.870286-.2316-.230814-.5458-.360484-.8734-.360484h-3.7059c-1.3105 0-2.5673.51868-3.494 1.44194-.9266.92325-1.4472 2.17546-1.4472 3.48114v25.84612c0 .3264.1301.6395.3618.8703s.5459.3605.8735.3605h4.3235c2.4706-.3692 4.3235-2.4615 4.3235-4.9231z"/><path d="m100.553 23.5958c-.9269-.9233-2.1837-1.442-3.4942-1.442h-3.7059c-.6794 0-1.2353.5539-1.2353 1.2308v3.6923c0 1.3057.5206 2.5579 1.4473 3.4812.9266.9232 2.1834 1.4419 3.4939 1.4419h3.7062c.327 0 .642-.1297.873-.3605.232-.2308.362-.5439.362-.8703v-3.6923c0-1.3057-.521-2.5579-1.447-3.4811z"/><path d="m100.765 11.0769h-3.7062c-1.3105 0-2.5673.5187-3.4939 1.442-.9267.9232-1.4473 2.1754-1.4473 3.4811v3.6923c0 .3264.1302.6395.3619.8703.2316.2308.5458.3605.8734.3605h3.7059c1.3105 0 2.5673-.5187 3.4942-1.442.926-.9232 1.447-2.1754 1.447-3.4811v-3.6923c0-.3264-.13-.6395-.362-.8703-.231-.2308-.546-.3605-.873-.3605z"/><path d="m79 27.0769v-11.0769-3.6923c0-.3264-.1317-.6395-.3661-.8703s-.5524-.3605-.8839-.3605h-3.75c-1.3261 0-2.5979.5187-3.5355 1.442-.9377.9232-1.4645 2.1754-1.4645 3.4811v14.7692c0 .3264.1317.6395.3661.8703s.5524.3605.8839.3605h3.75c1.3261 0 2.5978-.5187 3.5355-1.4419.9377-.9233 1.4645-2.1755 1.4645-3.4812z"/><path d="m77.5355 1.44194c-.9377-.92326-2.2094-1.44194-3.5355-1.44194h-3.75c-.6875 0-1.25.553846-1.25 1.23077v3.69231c0 1.30568.5268 2.55788 1.4645 3.48114.9376.92325 2.2094 1.44193 3.5355 1.44193h3.75c.3315 0 .6495-.12967.8839-.36048s.3661-.54387.3661-.87029v-3.6923c0-1.30568-.5268-2.55789-1.4645-3.48114z"/><path d="m43.9613 27.0589v-10.5c.0879-.6987.0257-1.4083-.1825-2.081s-.5575-1.2931-1.0246-1.8195-1.041-.9467-1.6835-1.2327c-.6424-.286-1.3385-.4311-2.0415-.4255h-3.699c-.6782 0-1.233.5558-1.233 1.2352v4.3235 14.2058c0 .3276.1299.6418.3611.8735s.5449.3618.8719.3618h4.3155c2.4661-.3706 4.3156-2.4706 4.3156-4.9411z"/><path d="m23 12.2354v3.7059c0 1.3105.5196 2.5673 1.4446 3.4939.9249.9267 2.1794 1.4472 3.4875 1.4472h3.699c.327 0 .6407-.1301.8719-.3618.2312-.2316.3611-.5458.3611-.8735v-7.4117c0-.3276-.1299-.6418-.3611-.8734-.2312-.2317-.5449-.3618-.8719-.3618h-7.3981c-.6781 0-1.233.5558-1.233 1.2352z"/><path d="m24.4446 30.5528c.9249.9266 2.1794 1.4472 3.4875 1.4472h3.699c.327 0 .6407-.1301.8719-.3618s.3611-.5459.3611-.8735v-7.4117c0-.3276-.1299-.6418-.3611-.8735-.2312-.2316-.5449-.3618-.8719-.3618h-3.699c-1.3081 0-2.5626.5206-3.4875 1.4472-.925.9267-1.4446 2.1835-1.4446 3.494 0 1.3104.5196 2.5672 1.4446 3.4939z"/><path d="m9.88235 27.0588v-11.1176-3.7059c0-.3276-.13015-.6418-.36181-.8735s-.54586-.3618-.87348-.3618h-3.70588c-1.31049 0-2.56729.5206-3.49394 1.4472-.926653.9267-1.44724 2.1835-1.44724 3.494v14.8235c0 .3276.130147.6418.361809.8735.231663.2317.545865.3618.873481.3618h3.70589c1.31048 0 2.56728-.5206 3.49393-1.4472.92666-.9267 1.44724-2.1835 1.44724-3.494z"/><path d="m18.804 11.8327c-.8126-.5429-1.7679-.8327-2.7452-.8327h-3.7059c-.6794 0-1.2353.5559-1.2353 1.2353v3.7059c0 .9772.2898 1.9326.8328 2.7451.5429.8126 1.3146 1.4459 2.2175 1.8199s1.8964.4719 2.8549.2812c.9585-.1906 1.8389-.6612 2.53-1.3523.691-.691 1.1616-1.5715 1.3523-2.5299.1906-.9585.0928-1.952-.2812-2.8549s-1.0073-1.6746-1.8199-2.2176z"/><path d="m67 27.0769v-22.15382-3.69231c0-.326421-.1301-.639472-.3618-.870286s-.5459-.360484-.8735-.360484h-3.7059c-1.3105 0-2.5673.51868-3.4939 1.44194-.9267.92325-1.4472 2.17546-1.4472 3.48114v25.84612c0 .3264.1301.6395.3618.8703.2316.2308.5458.3605.8734.3605h3.7059c1.3105 0 2.5673-.5187 3.494-1.4419.9266-.9233 1.4472-2.1755 1.4472-3.4812z"/><path d="m55.8824 30.7692v-14.1538-4.3077c0-.3264-.1302-.6395-.3619-.8703-.2316-.2308-.5458-.3605-.8734-.3605h-3.7059c-1.3105 0-2.5673.5187-3.494 1.442-.9266.9232-1.4472 2.1754-1.4472 3.4811v.6154 10.4615c0 1.3057.5206 2.5579 1.4472 3.4812.9267.9232 2.1835 1.4419 3.494 1.4419h3.7059c.3276 0 .6418-.1297.8734-.3605.2317-.2308.3619-.5439.3619-.8703z"/><path d="m124.961 27.0589v-10.5c.088-.6987.026-1.4083-.182-2.081s-.558-1.2931-1.025-1.8195-1.041-.9467-1.683-1.2327c-.643-.286-1.339-.4311-2.042-.4255h-3.699c-.678 0-1.233.5558-1.233 1.2352v4.3235 14.2058c0 .3276.13.6418.361.8735.232.2317.545.3618.872.3618h4.316c2.466-.3706 4.315-2.4706 4.315-4.9411z"/><path d="m104 12.2354v3.7059c0 1.3105.52 2.5673 1.445 3.4939.925.9267 2.179 1.4472 3.487 1.4472h3.699c.327 0 .641-.1301.872-.3618.231-.2316.361-.5458.361-.8735v-7.4117c0-.3276-.13-.6418-.361-.8734-.231-.2317-.545-.3618-.872-.3618h-7.398c-.678 0-1.233.5558-1.233 1.2352z"/><path d="m105.445 30.5528c.925.9266 2.179 1.4472 3.487 1.4472h3.699c.327 0 .641-.1301.872-.3618s.361-.5459.361-.8735v-7.4117c0-.3276-.13-.6418-.361-.8735-.231-.2316-.545-.3618-.872-.3618h-3.699c-1.308 0-2.562.5206-3.487 1.4472-.925.9267-1.445 2.1835-1.445 3.494 0 1.3104.52 2.5672 1.445 3.4939z"/></g></svg>