<svg width="800" height="800" viewBox="0 0 800 800" fill="none" xmlns="http://www.w3.org/2000/svg">
<rect width="800" height="800" fill="#0F6B33"/>
<rect width="540" height="540" transform="translate(130 130)" fill="#0F6B33"/>
<path opacity="0.5" d="M565.195 519.895L566.579 523.059C572.645 539.054 565.73 557.365 550.1 565.18C534.468 572.996 515.668 567.539 506.513 553.084L504.815 550.085L415.101 370.656C408.882 358.218 391.133 358.218 384.914 370.656L295.2 550.085C286.864 566.756 266.586 573.516 249.915 565.18C233.244 556.844 226.484 536.567 234.82 519.895L369.821 249.906C382.259 225.031 417.756 225.031 430.194 249.906L565.195 519.895Z" fill="white"/>
<path d="M558.102 294.571C564.73 289.164 574.501 289.546 580.679 295.725C586.857 301.904 587.238 311.677 581.833 318.306L580.679 319.592L411.97 488.33C405.371 494.931 394.622 494.931 388.023 488.33L269.939 370.226L268.786 368.94C263.38 362.311 263.761 352.539 269.939 346.359C276.118 340.18 285.888 339.799 292.517 345.206L293.802 346.359L388.023 440.597C394.622 447.197 405.371 447.197 411.97 440.597L556.816 295.725L558.102 294.571Z" fill="white"/>
</svg>
